<?xml version="1.0" encoding="UTF-8"?>
<svg xmlns="http://www.w3.org/2000/svg" xmlns:xlink="http://www.w3.org/1999/xlink" viewBox="0 0 24 24" width="24px" height="24px">
<g id="surface124542882">
<path style=" stroke:none;fill-rule:nonzero;fill:rgb(19.607843%,45.09804%,86.274511%);fill-opacity:1;" d="M 19 3 C 17.355469 3 16 4.355469 16 6 C 16 6.460938 16.113281 6.890625 16.304688 7.28125 L 12.585938 11 L 7.8125 11 C 7.394531 9.84375 6.292969 9 5 9 C 3.355469 9 2 10.355469 2 12 C 2 13.644531 3.355469 15 5 15 C 6.292969 15 7.394531 14.15625 7.8125 13 L 12.585938 13 L 16.304688 16.71875 C 16.113281 17.109375 16 17.539062 16 18 C 16 19.644531 17.355469 21 19 21 C 20.644531 21 22 19.644531 22 18 C 22 16.355469 20.644531 15 19 15 C 18.539062 15 18.109375 15.113281 17.71875 15.304688 L 14.414062 12 L 17.71875 8.699219 C 18.109375 8.886719 18.539062 9 19 9 C 20.644531 9 22 7.644531 22 6 C 22 4.355469 20.644531 3 19 3 Z M 19 5 C 19.5625 5 20 5.4375 20 6 C 20 6.5625 19.5625 7 19 7 C 18.4375 7 18 6.5625 18 6 C 18 5.4375 18.4375 5 19 5 Z M 5 11 C 5.5625 11 6 11.4375 6 12 C 6 12.5625 5.5625 13 5 13 C 4.4375 13 4 12.5625 4 12 C 4 11.4375 4.4375 11 5 11 Z M 19 17 C 19.5625 17 20 17.4375 20 18 C 20 18.5625 19.5625 19 19 19 C 18.4375 19 18 18.5625 18 18 C 18 17.4375 18.4375 17 19 17 Z M 19 17 "/>
</g>
</svg>
