<svg width="180" height="180" viewBox="0 0 180 180" fill="none" xmlns="http://www.w3.org/2000/svg">
<path d="M180 90C180 72.1997 174.722 54.7991 164.832 39.9987C154.943 25.1982 140.887 13.6628 124.442 6.85088C107.996 0.038995 89.9002 -1.7433 72.442 1.72937C54.9836 5.20204 38.9472 13.7737 26.3605 26.3605C13.7737 38.9472 5.20204 54.9836 1.72936 72.4419C-1.7433 89.9001 0.038995 107.996 6.85089 124.442C13.6628 140.887 25.1983 154.943 39.9988 164.832C54.7991 174.722 72.1997 180 90.0001 180C113.869 180 136.761 170.518 153.64 153.64C170.518 136.761 180 113.869 180 90Z" fill="#E7B224"/>
<path d="M84.6361 38.3764C78.3721 40.0684 73.1881 45.6484 71.8921 52.2004L71.3881 54.5404L69.1921 54.6484L66.9601 54.7564L65.0881 57.9604C64.0441 59.7244 63.1081 61.2004 63.0001 61.2004C62.8921 61.2004 62.2441 60.1924 61.5601 59.0044C59.7601 55.8364 58.3561 54.7204 56.2321 54.7204C54.1081 54.7204 52.5241 55.6564 51.7321 57.3484C51.2281 58.3924 51.1201 59.7604 51.1201 64.9444V71.2804H52.9201H54.7201V65.0164C54.7201 60.0124 54.8281 58.6804 55.2601 58.3204C56.3041 57.4564 57.0961 58.1764 59.9401 62.9284C61.5241 65.5204 62.8921 67.6804 63.0001 67.6804C63.1081 67.6804 64.4761 65.4844 66.0601 62.8204C68.9041 58.0324 68.9401 57.9604 70.2361 57.9604C71.4961 57.9604 71.5321 57.9964 71.9641 59.9404C72.2161 61.0564 73.5481 64.2244 74.9161 67.0324C77.4001 72.0004 77.4001 72.1084 76.6801 72.6124C75.6001 73.3684 74.8801 75.0244 74.8801 76.7884C74.8801 78.0844 74.6641 78.5164 73.6561 79.5244L72.3961 80.7484L73.4761 82.6564C74.9161 85.1764 74.7001 85.7524 72.0721 86.4004L70.0201 86.9404L69.9121 91.6564L69.8041 96.3724L72.0001 96.9484C73.2601 97.3084 74.2681 97.8124 74.4121 98.1364C74.5201 98.4964 74.1601 99.6124 73.5121 100.764L72.3961 102.816L75.6361 106.056L78.8761 109.26L81.0001 108.108C83.5561 106.74 83.9161 106.92 84.7801 109.872L85.3561 111.96H90.0001H94.6441L95.2201 109.908C96.0841 106.92 96.4441 106.74 99.0001 108.108L101.124 109.26L104.364 106.056L107.604 102.816L106.488 100.764C105.876 99.6484 105.48 98.4964 105.588 98.1724C105.696 97.8484 106.776 97.3444 108 96.9844L110.196 96.3724L110.088 91.6564L109.98 86.9404L107.928 86.4004C105.3 85.7524 105.084 85.1764 106.524 82.6564L107.604 80.7484L106.344 79.5244C105.336 78.5164 105.12 78.0844 105.12 76.7884C105.12 75.0244 104.4 73.3684 103.32 72.6124C102.6 72.1084 102.6 72.0004 105.084 67.0324C106.452 64.2244 107.784 61.0564 108.036 59.9404C108.468 57.9964 108.504 57.9604 109.764 57.9604C111.06 57.9604 111.096 58.0324 113.94 62.8204C115.524 65.4844 116.892 67.6804 117 67.6804C117.108 67.6804 118.476 65.5204 120.06 62.9284C122.904 58.1764 123.696 57.4564 124.74 58.3204C125.172 58.6804 125.28 60.0124 125.28 65.0164V71.2804H127.08H128.88V64.9444C128.88 59.7604 128.772 58.3924 128.268 57.3484C127.476 55.6564 125.892 54.7204 123.768 54.7204C121.644 54.7204 120.24 55.8364 118.44 59.0044C117.756 60.1924 117.108 61.2004 117 61.2004C116.892 61.2004 115.956 59.7244 114.912 57.9604L113.04 54.7564L110.808 54.6484L108.612 54.5404L108.108 52.2004C107.424 48.7444 105.732 45.5764 103.176 43.0564C99.3601 39.2764 95.5801 37.7644 89.8201 37.8364C88.0561 37.8364 85.7161 38.0884 84.6361 38.3764ZM95.6521 42.0484C99.7561 43.6324 103.356 47.4844 104.58 51.5884C105.192 53.7124 105.264 57.1324 104.76 59.2204C104.544 60.0124 103.212 63.0364 101.808 65.9524L99.2161 71.2804H95.5081H91.8001V66.9964V62.7124L92.8801 62.2804C95.5801 61.1644 97.2721 57.6364 96.5161 54.7564C95.6521 51.4804 93.3481 49.6804 90.0001 49.6804C86.6521 49.6804 84.3481 51.4804 83.4841 54.7564C82.7281 57.6364 84.4201 61.1644 87.1201 62.2804L88.2001 62.7124V66.9964V71.2804H84.4921H80.7841L78.1921 65.9524C75.1681 59.7604 74.7361 58.1404 74.9521 54.5404C75.3481 48.5284 79.7041 43.2724 85.6801 41.5804C88.3081 40.8604 93.1321 41.0764 95.6521 42.0484ZM92.1241 53.8564C94.0321 55.4404 93.5641 58.2844 91.2241 59.2564C87.8041 60.6964 85.0321 56.2324 87.8761 53.8564C88.4881 53.3164 89.4241 52.9204 90.0001 52.9204C90.5761 52.9204 91.5121 53.3164 92.1241 53.8564ZM101.304 75.4564C102.024 76.1764 102.024 76.8244 101.304 77.5444C100.836 78.0484 99.2881 78.1204 90.0001 78.1204C80.7121 78.1204 79.1641 78.0484 78.6961 77.5444C78.3721 77.2564 78.1201 76.7524 78.1201 76.5004C78.1201 76.2484 78.3721 75.7444 78.6961 75.4564C79.1641 74.9524 80.7121 74.8804 90.0001 74.8804C99.2881 74.8804 100.836 74.9524 101.304 75.4564ZM78.4801 82.2244C78.4801 82.6564 78.9841 84.0244 79.5961 85.2484C80.5681 87.2284 80.6401 87.5884 80.3161 88.8124C78.9841 93.5644 81.0721 98.3524 85.5001 100.62C93.2401 104.58 101.808 97.5964 99.7561 88.9924C99.3601 87.3724 99.3961 87.1204 100.116 85.8604C100.584 85.1044 101.124 83.7364 101.376 82.8364C101.664 81.5764 101.952 81.1444 102.564 81.0724C103.536 80.9284 103.5 81.0724 102.42 82.9084L101.556 84.4204L102.348 86.5084C103.104 88.4884 103.212 88.5604 105.048 89.1004L106.92 89.6764V91.7284V93.8164L105.12 94.2844C103.464 94.7164 103.284 94.8604 102.42 96.7324L101.52 98.7124L102.456 100.44L103.392 102.168L101.916 103.608L100.404 105.048L98.7841 104.148L97.1641 103.248L95.1481 104.112C93.2401 104.94 93.0601 105.12 92.5561 106.776L91.9801 108.54H90.0001H88.0201L87.4441 106.776C86.9401 105.12 86.7601 104.94 84.8521 104.112L82.8361 103.248L81.2161 104.148L79.5961 105.048L78.7681 104.256C76.5721 102.168 76.5721 102.168 77.5801 100.368L78.4801 98.7484L77.5441 96.7324C76.7521 95.0044 76.4641 94.6444 75.3121 94.3204C74.5921 94.1404 73.7641 93.9604 73.5481 93.9604C73.2241 93.9604 73.0801 93.2764 73.0801 91.8004V89.6764L74.9881 89.1004C76.7881 88.5604 76.8961 88.4884 77.6521 86.5084L78.4441 84.4204L77.5441 82.9084C76.5721 81.1804 76.6441 80.4244 77.7961 81.0004C78.1561 81.2164 78.4801 81.7564 78.4801 82.2244ZM97.7401 83.0524C96.3721 86.2924 93.5281 88.2004 90.0001 88.2004C86.4721 88.2004 83.6281 86.2924 82.2601 83.0524L81.7201 81.7204H90.0001H98.2801L97.7401 83.0524ZM85.5361 90.7924C87.9841 91.8724 92.0161 91.8724 94.4641 90.7564C96.5521 89.8564 96.9841 90.1444 96.6601 92.3044C96.3361 94.6084 95.4001 96.1564 93.6361 97.2364C91.4761 98.6404 88.7761 98.6764 86.5801 97.3804C84.8521 96.3724 84.1321 95.4364 83.5201 93.3484C83.1241 92.0884 83.2321 90.0004 83.6641 90.0004C83.7361 90.0004 84.5641 90.3604 85.5361 90.7924Z" fill="white"/>
<path d="M51.1201 76.5009V78.1209H52.9201H54.7201V76.5009V74.8809H52.9201H51.1201V76.5009Z" fill="white"/>
<path d="M125.28 76.5009V78.1209H127.08H128.88V76.5009V74.8809H127.08H125.28V76.5009Z" fill="white"/>
<path d="M51.1201 83.3407V84.9607H52.9201H54.7201V83.3407V81.7207H52.9201H51.1201V83.3407Z" fill="white"/>
<path d="M125.28 83.3407V84.9607H127.08H128.88V83.3407V81.7207H127.08H125.28V83.3407Z" fill="white"/>
<path d="M50.3282 88.7048C45.7562 89.9648 42.8402 93.7808 42.8402 98.4608C42.8402 100.801 43.3442 102.349 44.8202 104.437L46.0082 106.093L44.7482 106.705C42.8042 107.641 40.1762 110.305 39.0242 112.573L37.9802 114.661L37.8722 128.413L37.7642 142.201H52.0202H66.2402V138.997V135.793L70.3082 135.649C74.8442 135.505 76.2482 135.001 77.4002 133.093C78.8042 130.861 78.1202 127.909 75.8882 126.289C74.8082 125.533 74.2322 125.461 69.5882 125.317C64.6202 125.209 64.4402 125.173 64.4402 124.417C64.4402 124.021 64.2602 121.825 64.0442 119.557C63.5402 114.121 62.7482 112.033 60.0842 109.297L57.9962 107.137L58.7882 106.597C61.5602 104.653 63.1802 101.197 62.8922 97.7408C62.4242 91.4408 56.2682 87.0128 50.3282 88.7048ZM55.5482 92.3048C57.0962 92.9528 58.9322 95.0768 59.4002 96.8048C60.4082 100.585 57.5642 104.653 53.6762 105.049C51.3722 105.265 49.7162 104.653 48.1322 103.105C45.0362 100.009 45.6842 94.9688 49.4282 92.7008C51.1562 91.6928 53.6762 91.5128 55.5482 92.3048ZM54.9002 109.585C57.5282 110.773 59.7242 113.473 60.2642 116.101C60.3722 116.677 60.6602 119.269 60.8762 121.861C61.0922 124.417 61.4162 126.829 61.5962 127.153C62.3162 128.521 63.8282 128.881 68.9042 128.881C72.8282 128.881 73.8722 128.989 74.3042 129.457C75.0242 130.177 75.0242 130.825 74.3042 131.545C73.8362 132.013 72.6842 132.121 67.3922 132.121C61.7042 132.121 60.9122 132.049 59.8682 131.401C57.8162 130.177 57.5642 129.421 56.8442 122.149C56.4842 118.405 56.1962 115.345 56.1962 115.273C56.1242 115.057 53.7842 115.237 53.3522 115.489C52.9922 115.741 53.0282 117.001 53.4962 122.077C53.7842 125.533 54.2162 128.953 54.3962 129.709C55.1162 132.445 58.2842 134.965 61.6682 135.541C62.9642 135.757 63.0002 135.793 63.0002 137.341V138.961H52.0202H41.0402V128.053C41.0402 115.777 41.2202 114.589 43.3802 112.069C46.1522 108.829 51.0122 107.749 54.9002 109.585Z" fill="white"/>
<path d="M124.488 88.7032C121.284 89.5672 118.656 92.0512 117.504 95.2912C116.136 99.1792 117.792 104.219 121.212 106.595L122.004 107.135L119.916 109.295C117.252 112.031 116.46 114.119 115.956 119.555C115.74 121.823 115.56 124.019 115.56 124.415C115.56 125.171 115.38 125.207 110.412 125.315C105.768 125.459 105.192 125.531 104.112 126.287C101.124 128.447 101.124 132.551 104.112 134.675C105.12 135.395 105.804 135.539 109.512 135.647L113.76 135.791V138.995V142.199H127.98H142.236L142.128 128.411L142.02 114.659L140.976 112.571C139.824 110.303 137.196 107.639 135.252 106.703L133.992 106.091L135.18 104.435C135.792 103.535 136.512 102.239 136.764 101.555C137.34 99.8272 137.268 96.9112 136.584 94.9672C135 90.2872 129.312 87.3352 124.488 88.7032ZM130.536 92.6992C132.408 93.8152 133.524 95.5432 133.776 97.8112C133.956 99.2512 133.812 99.8632 132.948 101.483C129.924 107.279 121.716 105.911 120.456 99.3952C119.988 96.8392 121.86 93.3832 124.38 92.3032C126.18 91.5112 128.808 91.6912 130.536 92.6992ZM133.488 109.655C135.828 110.807 137.592 112.859 138.348 115.235C138.852 116.783 138.96 118.835 138.96 128.015V138.959H127.98H117V137.339C117 135.791 117.036 135.755 118.368 135.539C121.716 134.963 124.884 132.443 125.604 129.707C125.784 128.951 126.216 125.531 126.504 122.075C126.972 116.999 127.008 115.739 126.648 115.487C126.216 115.235 123.876 115.055 123.804 115.271C123.804 115.343 123.516 118.403 123.156 122.147C122.436 129.419 122.184 130.175 120.132 131.399C119.088 132.047 118.296 132.119 112.608 132.119C107.316 132.119 106.164 132.011 105.696 131.543C104.976 130.823 104.976 130.175 105.696 129.455C106.128 128.987 107.172 128.879 111.096 128.879C116.172 128.879 117.684 128.519 118.404 127.151C118.584 126.827 118.908 124.415 119.124 121.859C119.736 114.911 119.952 114.227 122.148 111.743C124.776 108.719 129.78 107.783 133.488 109.655Z" fill="white"/>
</svg>
