<svg width="518" height="391" viewBox="0 0 518 391" fill="none" xmlns="http://www.w3.org/2000/svg">
<mask id="mask0_253_2856" style="mask-type:alpha" maskUnits="userSpaceOnUse" x="0" y="0" width="518" height="391">
<path d="M518 0H0V391H518V0Z" fill="white"/>
</mask>
<g mask="url(#mask0_253_2856)">
<path d="M32.5844 81.9564C26.1397 81.9564 19.8398 79.553 14.4813 75.0503C9.12274 70.5476 4.94627 64.1476 2.48001 56.6599C0.0137522 49.1721 -0.631534 40.9327 0.625755 32.9837C1.88304 25.0347 4.98645 17.7331 9.5435 12.0022C14.1006 6.27134 19.9066 2.36855 26.2274 0.787402C32.5482 -0.793749 39.0999 0.0177553 45.054 3.1193C51.0081 6.22084 56.0971 11.4731 59.6776 18.2119C63.2581 24.9508 65.1691 32.8735 65.1691 40.9782C65.1593 51.8425 61.7232 62.2583 55.6145 69.9406C49.5058 77.6228 41.2234 81.9441 32.5844 81.9564ZM32.5844 1.70745C26.4083 1.70745 20.3708 4.01063 15.2356 8.32576C10.1003 12.6409 6.09786 18.7741 3.73436 25.9499C1.37086 33.1257 0.752468 41.0217 1.95737 48.6395C3.16227 56.2573 6.13635 63.2547 10.5035 68.7468C14.8707 74.2389 20.4348 77.9791 26.4923 79.4943C32.5497 81.0096 38.8285 80.2319 44.5345 77.2596C50.2405 74.2873 55.1174 69.2539 58.5487 62.7959C61.98 56.3378 63.8114 48.7452 63.8114 40.9782C63.802 30.5666 60.509 20.5848 54.6549 13.2226C48.8007 5.86048 40.8634 1.71925 32.5844 1.70745Z" fill="#F2F2F2"/>
<path d="M253.889 58.0524C250.667 58.0524 247.517 56.8507 244.838 54.5994C242.158 52.348 240.07 49.148 238.837 45.4041C237.604 41.6602 237.281 37.5406 237.91 33.5661C238.539 29.5916 240.09 25.9408 242.369 23.0753C244.647 20.2099 247.55 18.2585 250.711 17.4679C253.871 16.6773 257.147 17.0831 260.124 18.6339C263.101 20.1846 265.646 22.8108 267.436 26.1802C269.226 29.5496 270.182 33.511 270.182 37.5633C270.177 42.9955 268.459 48.2034 265.404 52.0445C262.35 55.8856 258.209 58.0462 253.889 58.0524ZM253.889 18.7817C250.936 18.7817 248.048 19.8832 245.592 21.9469C243.136 24.0107 241.222 26.944 240.091 30.3759C238.961 33.8078 238.665 37.5842 239.242 41.2274C239.818 44.8707 241.24 48.2173 243.329 50.8439C245.418 53.4706 248.079 55.2594 250.976 55.9841C253.873 56.7088 256.876 56.3368 259.605 54.9153C262.334 53.4938 264.666 51.0865 266.307 47.9978C267.948 44.9092 268.824 41.278 268.824 37.5633C268.82 32.5838 267.245 27.8099 264.445 24.2889C261.645 20.7679 257.849 18.7873 253.889 18.7817Z" fill="#F2F2F2"/>
<path d="M368.615 157.936C364.99 157.936 361.446 156.585 358.432 154.052C355.417 151.519 353.068 147.919 351.681 143.707C350.294 139.495 349.931 134.861 350.638 130.389C351.345 125.918 353.091 121.811 355.654 118.587C358.218 115.364 361.483 113.168 365.039 112.279C368.594 111.389 372.28 111.846 375.629 113.591C378.978 115.335 381.841 118.29 383.855 122.08C385.869 125.871 386.944 130.327 386.944 134.886C386.938 140.997 385.005 146.856 381.569 151.178C378.133 155.499 373.474 157.929 368.615 157.936ZM368.615 113.543C365.258 113.543 361.977 114.795 359.186 117.14C356.395 119.485 354.22 122.819 352.935 126.719C351.651 130.619 351.315 134.91 351.97 139.05C352.624 143.19 354.241 146.993 356.614 149.978C358.988 152.963 362.012 154.995 365.304 155.819C368.596 156.642 372.008 156.22 375.109 154.604C378.21 152.989 380.861 150.253 382.726 146.744C384.591 143.234 385.586 139.107 385.586 134.886C385.581 129.228 383.791 123.803 380.61 119.802C377.428 115.8 373.114 113.55 368.615 113.543Z" fill="#F2F2F2"/>
<path d="M518.478 361.188H26.2823V53.4599C26.2857 50.2305 27.4761 47.1344 29.5921 44.8509C31.7081 42.5674 34.577 41.2829 37.5694 41.2793H507.191C510.183 41.2829 513.052 42.5674 515.168 44.8509C517.284 47.1344 518.474 50.2305 518.478 53.4599V361.188Z" fill="#3F3D56"/>
<path d="M498.005 353.162H47.8871C45.4912 353.159 43.1941 352.095 41.4999 350.203C39.8057 348.31 38.8527 345.745 38.85 343.069V67.4256C38.8527 64.7496 39.8056 62.184 41.4998 60.2918C43.194 58.3995 45.4911 57.3351 47.8871 57.332H498.005C500.401 57.3351 502.698 58.3995 504.392 60.2918C506.087 62.184 507.04 64.7496 507.042 67.4256V343.069C507.04 345.745 506.087 348.31 504.392 350.203C502.698 352.095 500.401 353.159 498.005 353.162Z" fill="white"/>
<path d="M426.548 307.296H170.149C169.936 307.296 169.732 307.185 169.581 306.988C169.431 306.792 169.346 306.525 169.346 306.246V145.524C169.346 145.246 169.431 144.979 169.581 144.782C169.732 144.585 169.936 144.475 170.149 144.475C170.361 144.475 170.565 144.585 170.716 144.782C170.866 144.979 170.951 145.246 170.951 145.524V305.197H426.548C426.76 305.197 426.964 305.307 427.115 305.504C427.265 305.701 427.35 305.968 427.35 306.246C427.35 306.525 427.265 306.792 427.115 306.988C426.964 307.185 426.76 307.296 426.548 307.296Z" fill="#3F3D56"/>
<path d="M230.937 291.529H211.207C210.673 291.528 210.161 291.261 209.783 290.786C209.405 290.31 209.193 289.666 209.192 288.995V254.792C209.193 254.12 209.405 253.476 209.783 253.001C210.161 252.526 210.673 252.259 211.207 252.258H230.937C231.471 252.259 231.983 252.526 232.361 253.001C232.739 253.476 232.951 254.12 232.952 254.792V288.995C232.951 289.666 232.739 290.31 232.361 290.786C231.983 291.261 231.471 291.528 230.937 291.529Z" fill="#E7B224"/>
<path d="M263.81 294.157H244.081C243.546 294.156 243.034 293.889 242.656 293.414C242.279 292.939 242.066 292.295 242.065 291.623V224.979C242.066 224.307 242.279 223.663 242.656 223.188C243.034 222.713 243.546 222.446 244.081 222.445H263.81C264.344 222.446 264.856 222.713 265.234 223.188C265.612 223.663 265.824 224.307 265.825 224.979V291.623C265.824 292.295 265.612 292.939 265.234 293.414C264.856 293.889 264.344 294.156 263.81 294.157Z" fill="#E7B224"/>
<path d="M296.683 294.968H276.954C276.419 294.967 275.907 294.7 275.529 294.225C275.152 293.75 274.939 293.106 274.938 292.434V258.231C274.939 257.559 275.152 256.915 275.529 256.44C275.907 255.965 276.419 255.698 276.954 255.697H296.683C297.217 255.698 297.729 255.965 298.107 256.44C298.485 256.915 298.697 257.559 298.698 258.231V292.434C298.697 293.106 298.485 293.75 298.107 294.225C297.729 294.7 297.217 294.967 296.683 294.968Z" fill="#E7B224"/>
<path d="M337.525 294.35H317.796C317.274 294.364 316.769 294.118 316.391 293.664C316.013 293.211 315.794 292.587 315.781 291.931V212.252C315.794 211.595 316.013 210.972 316.391 210.519C316.769 210.065 317.274 209.818 317.796 209.833H337.525C338.047 209.818 338.553 210.065 338.93 210.519C339.308 210.972 339.527 211.595 339.54 212.252V291.931C339.527 292.587 339.308 293.211 338.93 293.664C338.553 294.118 338.047 294.364 337.525 294.35Z" fill="#E7B224"/>
<path d="M378.368 294.468H358.638C358.104 294.467 357.592 294.2 357.214 293.725C356.836 293.25 356.624 292.606 356.623 291.934V240.684V189.434C356.624 188.763 356.836 188.118 357.214 187.643C357.592 187.168 358.104 186.901 358.638 186.9H378.368C378.902 186.901 379.414 187.168 379.792 187.643C380.17 188.118 380.382 188.763 380.383 189.434V291.934C380.382 292.606 380.17 293.25 379.792 293.725C379.414 294.2 378.902 294.467 378.368 294.468Z" fill="#E7B224"/>
<path d="M217.25 236.129C219.5 236.129 221.323 233.836 221.323 231.007C221.323 228.178 219.5 225.885 217.25 225.885C215.001 225.885 213.177 228.178 213.177 231.007C213.177 233.836 215.001 236.129 217.25 236.129Z" fill="#3F3D56"/>
<path d="M254.108 198.291C256.357 198.291 258.181 195.998 258.181 193.169C258.181 190.34 256.357 188.047 254.108 188.047C251.858 188.047 250.035 190.34 250.035 193.169C250.035 195.998 251.858 198.291 254.108 198.291Z" fill="#3F3D56"/>
<path d="M290.965 231.543C293.215 231.543 295.038 229.25 295.038 226.421C295.038 223.592 293.215 221.299 290.965 221.299C288.716 221.299 286.892 223.592 286.892 226.421C286.892 229.25 288.716 231.543 290.965 231.543Z" fill="#3F3D56"/>
<path d="M327.823 178.799C330.073 178.799 331.896 176.506 331.896 173.677C331.896 170.848 330.073 168.555 327.823 168.555C325.574 168.555 323.75 170.848 323.75 173.677C323.75 176.506 325.574 178.799 327.823 178.799Z" fill="#3F3D56"/>
<path d="M366.673 163.893C368.923 163.893 370.746 161.6 370.746 158.771C370.746 155.942 368.923 153.648 366.673 153.648C364.424 153.648 362.6 155.942 362.6 158.771C362.6 161.6 364.424 163.893 366.673 163.893Z" fill="#3F3D56"/>
<path d="M290.608 227.919L254.544 193.949L218.972 227.455L218.158 226.089L254.544 191.815L290.437 225.625L326.105 176.538L326.248 176.465L362.227 158.234L362.735 159.818L326.899 177.976L290.608 227.919Z" fill="#3F3D56"/>
<path d="M509.118 407.053H35.6417C33.1575 407.049 30.777 406.452 29.0223 405.393C27.2677 404.334 26.2823 402.899 26.2823 401.403V361.188H518.478V401.403C518.478 402.899 517.492 404.334 515.738 405.393C513.983 406.452 511.603 407.049 509.118 407.053Z" fill="#BBBDBE"/>
</g>
</svg>
