<svg width="100" height="100" viewBox="0 0 100 100" fill="none" xmlns="http://www.w3.org/2000/svg">
<g clip-path="url(#clip0)">
<path d="M100 50C100 40.1109 97.0675 30.4439 91.5735 22.2215C86.0794 13.999 78.2705 7.5904 69.1342 3.80602C59.9979 0.0216413 49.9445 -0.968525 40.2455 0.960736C30.5464 2.89 21.6373 7.65204 14.6447 14.6447C7.65203 21.6373 2.88999 30.5464 0.960728 40.2455C-0.968533 49.9445 0.0216336 59.9979 3.80602 69.1342C7.5904 78.2705 13.999 86.0794 22.2215 91.5735C30.4439 97.0676 40.1109 100 50 100C63.2608 100 75.9785 94.7322 85.3553 85.3553C94.7321 75.9785 100 63.2608 100 50Z" fill="#E7B224"/>
<path d="M47.02 21.32C43.54 22.26 40.66 25.36 39.94 29L39.66 30.3L38.44 30.36L37.2 30.42L36.16 32.2C35.58 33.18 35.06 34 35 34C34.94 34 34.58 33.44 34.2 32.78C33.2 31.02 32.42 30.4 31.24 30.4C30.06 30.4 29.18 30.92 28.74 31.86C28.46 32.44 28.4 33.2 28.4 36.08V39.6H29.4H30.4V36.12C30.4 33.34 30.46 32.6 30.7 32.4C31.28 31.92 31.72 32.32 33.3 34.96C34.18 36.4 34.94 37.6 35 37.6C35.06 37.6 35.82 36.38 36.7 34.9C38.28 32.24 38.3 32.2 39.02 32.2C39.72 32.2 39.74 32.22 39.98 33.3C40.12 33.92 40.86 35.68 41.62 37.24C43 40 43 40.06 42.6 40.34C42 40.76 41.6 41.68 41.6 42.66C41.6 43.38 41.48 43.62 40.92 44.18L40.22 44.86L40.82 45.92C41.62 47.32 41.5 47.64 40.04 48L38.9 48.3L38.84 50.92L38.78 53.54L40 53.86C40.7 54.06 41.26 54.34 41.34 54.52C41.4 54.72 41.2 55.34 40.84 55.98L40.22 57.12L42.02 58.92L43.82 60.7L45 60.06C46.42 59.3 46.62 59.4 47.1 61.04L47.42 62.2H50H52.58L52.9 61.06C53.38 59.4 53.58 59.3 55 60.06L56.18 60.7L57.98 58.92L59.78 57.12L59.16 55.98C58.82 55.36 58.6 54.72 58.66 54.54C58.72 54.36 59.32 54.08 60 53.88L61.22 53.54L61.16 50.92L61.1 48.3L59.96 48C58.5 47.64 58.38 47.32 59.18 45.92L59.78 44.86L59.08 44.18C58.52 43.62 58.4 43.38 58.4 42.66C58.4 41.68 58 40.76 57.4 40.34C57 40.06 57 40 58.38 37.24C59.14 35.68 59.88 33.92 60.02 33.3C60.26 32.22 60.28 32.2 60.98 32.2C61.7 32.2 61.72 32.24 63.3 34.9C64.18 36.38 64.94 37.6 65 37.6C65.06 37.6 65.82 36.4 66.7 34.96C68.28 32.32 68.72 31.92 69.3 32.4C69.54 32.6 69.6 33.34 69.6 36.12V39.6H70.6H71.6V36.08C71.6 33.2 71.54 32.44 71.26 31.86C70.82 30.92 69.94 30.4 68.76 30.4C67.58 30.4 66.8 31.02 65.8 32.78C65.42 33.44 65.06 34 65 34C64.94 34 64.42 33.18 63.84 32.2L62.8 30.42L61.56 30.36L60.34 30.3L60.06 29C59.68 27.08 58.74 25.32 57.32 23.92C55.2 21.82 53.1 20.98 49.9 21.02C48.92 21.02 47.62 21.16 47.02 21.32ZM53.14 23.36C55.42 24.24 57.42 26.38 58.1 28.66C58.44 29.84 58.48 31.74 58.2 32.9C58.08 33.34 57.34 35.02 56.56 36.64L55.12 39.6H53.06H51V37.22V34.84L51.6 34.6C53.1 33.98 54.04 32.02 53.62 30.42C53.14 28.6 51.86 27.6 50 27.6C48.14 27.6 46.86 28.6 46.38 30.42C45.96 32.02 46.9 33.98 48.4 34.6L49 34.84V37.22V39.6H46.94H44.88L43.44 36.64C41.76 33.2 41.52 32.3 41.64 30.3C41.86 26.96 44.28 24.04 47.6 23.1C49.06 22.7 51.74 22.82 53.14 23.36ZM51.18 29.92C52.24 30.8 51.98 32.38 50.68 32.92C48.78 33.72 47.24 31.24 48.82 29.92C49.16 29.62 49.68 29.4 50 29.4C50.32 29.4 50.84 29.62 51.18 29.92ZM56.28 41.92C56.68 42.32 56.68 42.68 56.28 43.08C56.02 43.36 55.16 43.4 50 43.4C44.84 43.4 43.98 43.36 43.72 43.08C43.54 42.92 43.4 42.64 43.4 42.5C43.4 42.36 43.54 42.08 43.72 41.92C43.98 41.64 44.84 41.6 50 41.6C55.16 41.6 56.02 41.64 56.28 41.92ZM43.6 45.68C43.6 45.92 43.88 46.68 44.22 47.36C44.76 48.46 44.8 48.66 44.62 49.34C43.88 51.98 45.04 54.64 47.5 55.9C51.8 58.1 56.56 54.22 55.42 49.44C55.2 48.54 55.22 48.4 55.62 47.7C55.88 47.28 56.18 46.52 56.32 46.02C56.48 45.32 56.64 45.08 56.98 45.04C57.52 44.96 57.5 45.04 56.9 46.06L56.42 46.9L56.86 48.06C57.28 49.16 57.34 49.2 58.36 49.5L59.4 49.82V50.96V52.12L58.4 52.38C57.48 52.62 57.38 52.7 56.9 53.74L56.4 54.84L56.92 55.8L57.44 56.76L56.62 57.56L55.78 58.36L54.88 57.86L53.98 57.36L52.86 57.84C51.8 58.3 51.7 58.4 51.42 59.32L51.1 60.3H50H48.9L48.58 59.32C48.3 58.4 48.2 58.3 47.14 57.84L46.02 57.36L45.12 57.86L44.22 58.36L43.76 57.92C42.54 56.76 42.54 56.76 43.1 55.76L43.6 54.86L43.08 53.74C42.64 52.78 42.48 52.58 41.84 52.4C41.44 52.3 40.98 52.2 40.86 52.2C40.68 52.2 40.6 51.82 40.6 51V49.82L41.66 49.5C42.66 49.2 42.72 49.16 43.14 48.06L43.58 46.9L43.08 46.06C42.54 45.1 42.58 44.68 43.22 45C43.42 45.12 43.6 45.42 43.6 45.68ZM54.3 46.14C53.54 47.94 51.96 49 50 49C48.04 49 46.46 47.94 45.7 46.14L45.4 45.4H50H54.6L54.3 46.14ZM47.52 50.44C48.88 51.04 51.12 51.04 52.48 50.42C53.64 49.92 53.88 50.08 53.7 51.28C53.52 52.56 53 53.42 52.02 54.02C50.82 54.8 49.32 54.82 48.1 54.1C47.14 53.54 46.74 53.02 46.4 51.86C46.18 51.16 46.24 50 46.48 50C46.52 50 46.98 50.2 47.52 50.44Z" fill="white"/>
<path d="M28.4 42.5V43.4H29.4H30.4V42.5V41.6H29.4H28.4V42.5Z" fill="white"/>
<path d="M69.6 42.5V43.4H70.6H71.6V42.5V41.6H70.6H69.6V42.5Z" fill="white"/>
<path d="M28.4 46.3V47.2H29.4H30.4V46.3V45.4H29.4H28.4V46.3Z" fill="white"/>
<path d="M69.6 46.3V47.2H70.6H71.6V46.3V45.4H70.6H69.6V46.3Z" fill="white"/>
<path d="M27.96 49.28C25.42 49.98 23.8 52.1 23.8 54.7C23.8 56 24.08 56.86 24.9 58.02L25.56 58.94L24.86 59.28C23.78 59.8 22.32 61.28 21.68 62.54L21.1 63.7L21.04 71.34L20.98 79H28.9H36.8V77.22V75.44L39.06 75.36C41.58 75.28 42.36 75 43 73.94C43.78 72.7 43.4 71.06 42.16 70.16C41.56 69.74 41.24 69.7 38.66 69.62C35.9 69.56 35.8 69.54 35.8 69.12C35.8 68.9 35.7 67.68 35.58 66.42C35.3 63.4 34.86 62.24 33.38 60.72L32.22 59.52L32.66 59.22C34.2 58.14 35.1 56.22 34.94 54.3C34.68 50.8 31.26 48.34 27.96 49.28ZM30.86 51.28C31.72 51.64 32.74 52.82 33 53.78C33.56 55.88 31.98 58.14 29.82 58.36C28.54 58.48 27.62 58.14 26.74 57.28C25.02 55.56 25.38 52.76 27.46 51.5C28.42 50.94 29.82 50.84 30.86 51.28ZM30.5 60.88C31.96 61.54 33.18 63.04 33.48 64.5C33.54 64.82 33.7 66.26 33.82 67.7C33.94 69.12 34.12 70.46 34.22 70.64C34.62 71.4 35.46 71.6 38.28 71.6C40.46 71.6 41.04 71.66 41.28 71.92C41.68 72.32 41.68 72.68 41.28 73.08C41.02 73.34 40.38 73.4 37.44 73.4C34.28 73.4 33.84 73.36 33.26 73C32.12 72.32 31.98 71.9 31.58 67.86C31.38 65.78 31.22 64.08 31.22 64.04C31.18 63.92 29.88 64.02 29.64 64.16C29.44 64.3 29.46 65 29.72 67.82C29.88 69.74 30.12 71.64 30.22 72.06C30.62 73.58 32.38 74.98 34.26 75.3C34.98 75.42 35 75.44 35 76.3V77.2H28.9H22.8V71.14C22.8 64.32 22.9 63.66 24.1 62.26C25.64 60.46 28.34 59.86 30.5 60.88Z" fill="white"/>
<path d="M69.16 49.28C67.38 49.76 65.92 51.14 65.28 52.94C64.52 55.1 65.44 57.9 67.34 59.22L67.78 59.52L66.62 60.72C65.14 62.24 64.7 63.4 64.42 66.42C64.3 67.68 64.2 68.9 64.2 69.12C64.2 69.54 64.1 69.56 61.34 69.62C58.76 69.7 58.44 69.74 57.84 70.16C56.18 71.36 56.18 73.64 57.84 74.82C58.4 75.22 58.78 75.3 60.84 75.36L63.2 75.44V77.22V79H71.1H79.02L78.96 71.34L78.9 63.7L78.32 62.54C77.68 61.28 76.22 59.8 75.14 59.28L74.44 58.94L75.1 58.02C75.44 57.52 75.84 56.8 75.98 56.42C76.3 55.46 76.26 53.84 75.88 52.76C75 50.16 71.84 48.52 69.16 49.28ZM72.52 51.5C73.56 52.12 74.18 53.08 74.32 54.34C74.42 55.14 74.34 55.48 73.86 56.38C72.18 59.6 67.62 58.84 66.92 55.22C66.66 53.8 67.7 51.88 69.1 51.28C70.1 50.84 71.56 50.94 72.52 51.5ZM74.16 60.92C75.46 61.56 76.44 62.7 76.86 64.02C77.14 64.88 77.2 66.02 77.2 71.12V77.2H71.1H65V76.3C65 75.44 65.02 75.42 65.76 75.3C67.62 74.98 69.38 73.58 69.78 72.06C69.88 71.64 70.12 69.74 70.28 67.82C70.54 65 70.56 64.3 70.36 64.16C70.12 64.02 68.82 63.92 68.78 64.04C68.78 64.08 68.62 65.78 68.42 67.86C68.02 71.9 67.88 72.32 66.74 73C66.16 73.36 65.72 73.4 62.56 73.4C59.62 73.4 58.98 73.34 58.72 73.08C58.32 72.68 58.32 72.32 58.72 71.92C58.96 71.66 59.54 71.6 61.72 71.6C64.54 71.6 65.38 71.4 65.78 70.64C65.88 70.46 66.06 69.12 66.18 67.7C66.52 63.84 66.64 63.46 67.86 62.08C69.32 60.4 72.1 59.88 74.16 60.92Z" fill="white"/>
</g>
<defs>
<clipPath id="clip0">
<rect width="100" height="100" fill="white"/>
</clipPath>
</defs>
</svg>
