<svg xmlns="http://www.w3.org/2000/svg" width="322" height="230" viewBox="0 0 322 230">
    <defs>
        <linearGradient id="prefix__a" x1="50%" x2="50%" y1="100.001%" y2="0%">
            <stop offset="0%" stop-color="gray" stop-opacity=".25"/>
            <stop offset="54%" stop-color="gray" stop-opacity=".12"/>
            <stop offset="100%" stop-color="gray" stop-opacity=".1"/>
        </linearGradient>
        <linearGradient id="prefix__b" x1="49.984%" x2="49.984%" y1="99.984%" y2=".018%">
            <stop offset="0%" stop-color="gray" stop-opacity=".25"/>
            <stop offset="54%" stop-color="gray" stop-opacity=".12"/>
            <stop offset="100%" stop-color="gray" stop-opacity=".1"/>
        </linearGradient>
        <linearGradient id="prefix__c" x1=".02%" x2="100.01%" y1="49.978%" y2="49.978%">
            <stop offset="0%" stop-color="gray" stop-opacity=".25"/>
            <stop offset="54%" stop-color="gray" stop-opacity=".12"/>
            <stop offset="100%" stop-color="gray" stop-opacity=".1"/>
        </linearGradient>
        <linearGradient id="prefix__d" x1="49.984%" x2="49.984%" y1="100.004%" y2="-.031%">
            <stop offset="0%" stop-color="gray" stop-opacity=".25"/>
            <stop offset="54%" stop-color="gray" stop-opacity=".12"/>
            <stop offset="100%" stop-color="gray" stop-opacity=".1"/>
        </linearGradient>
        <linearGradient id="prefix__e" x1="49.958%" x2="49.958%" y1="100.082%" y2=".008%">
            <stop offset="0%" stop-color="gray" stop-opacity=".25"/>
            <stop offset="54%" stop-color="gray" stop-opacity=".12"/>
            <stop offset="100%" stop-color="gray" stop-opacity=".1"/>
        </linearGradient>
    </defs>
    <g fill="none" fill-rule="evenodd">
        <path fill="#0057AD" fill-rule="nonzero" d="M302.754 132.353c-11.32 15.517-7.584 37.665-1.04 55.31 2.191 5.906 4.68 12.154 3.545 18.58-1.388 7.857-7.912 13.744-14.693 16.95-12.362 5.843-26.964 4.91-38.022-2.453-9.542-6.354-16.26-16.914-25.987-22.965-16.28-10.124-37.415-5.6-55.534 2.129-12.819 5.467-26.86 12.51-39.352 7.46-8.79-3.552-14.71-12.596-17.824-22.263-1.504-4.668-2.557-9.734-5.552-13.388-1.782-2.172-4.135-3.685-6.556-4.95-22.089-11.554-50.502-4.333-71.918-17.224-14.458-8.706-23.457-25.6-27.195-43.36-3.74-17.761-2.814-36.51-1.325-54.937C2.36 38.146 4.034 24.152 11.916 13.86 20.253 2.98 34.226-1.344 46.72.36 59.215 2.064 70.417 8.996 80.217 17.27c12.258 10.323 23.535 23.284 38.78 27.203 10.383 2.669 21.415.78 32.21-.055 18.043-1.392 36.024.211 53.894 2.022 17.107 1.733 34.332 3.668 50.534 9.35 11.465 4.02 20.554 11.62 31.348 16.813 7.036 3.385 14.777 4.17 21.398 8.544 8.172 5.387 15.557 14.93 13.16 26.382-2.264 10.887-12.772 16.588-18.787 24.823z" opacity=".1"/>
        <g opacity=".5">
            <path stroke="#535461" stroke-width="2" d="M18.983 100.206s.95-28.293 16.165-44.28c6.386-6.709 10.58-15.229 11.69-24.45.52-4.376.64-8.79.357-13.188" transform="translate(228 103)"/>
            <path fill="#0057AD" fill-rule="nonzero" d="M56.726 8.161c-1.041 3.16-9.746 10.42-9.746 10.42S44.313 7.52 45.354 4.363c.674-2.043 2.38-3.57 4.476-4.005 2.096-.435 4.264.288 5.686 1.897 1.422 1.609 1.884 3.859 1.21 5.903v.002zM60.353 28.796c-2.589 2.084-13.808 3.421-13.808 3.421s3.74-10.74 6.329-12.82c1.658-1.453 3.974-1.874 6.033-1.098 2.06.776 3.53 2.624 3.832 4.815.302 2.191-.614 4.372-2.386 5.682zM50.09 58.56c-3.274.486-13.64-4.052-13.64-4.052s8.614-7.374 11.887-7.86c2.118-.315 4.24.53 5.57 2.217s1.664 3.96.876 5.962c-.787 2.002-2.577 3.43-4.694 3.744v-.011zM37.28 79.322c-3.145 1.036-14.125-1.684-14.125-1.684s7.252-8.732 10.396-9.768c3.143-1.039 6.529.682 7.562 3.845 1.032 3.162-.679 6.568-3.822 7.607h-.012zM34.403 28.846c1.527 2.952 11.28 8.731 11.28 8.731s.885-11.342-.642-14.297c-.988-1.91-2.913-3.144-5.051-3.238-2.138-.095-4.163.965-5.313 2.78-1.15 1.816-1.25 4.111-.263 6.02l-.011.004zM19.728 53.315c2.336 2.36 13.348 4.94 13.348 4.94s-2.528-11.09-4.861-13.448c-2.335-2.358-6.127-2.365-8.47-.016-2.344 2.349-2.351 6.164-.017 8.522v.002zM8.71 79.07c1.905 2.72 12.327 7.14 12.327 7.14s-.627-11.36-2.534-14.083c-1.201-1.838-3.303-2.872-5.483-2.696-2.18.176-4.092 1.534-4.986 3.541-.895 2.008-.631 4.346.688 6.101l-.011-.003z" transform="translate(228 103)"/>
            <path stroke="#535461" stroke-width="2" d="M22.326 88.496s-8.63-12.63-7.117-24.513c.667-4.98-.29-10.043-2.727-14.43C11.31 47.48 9.95 45.52 8.42 43.695" transform="translate(228 103)"/>
            <path fill="#0057AD" fill-rule="nonzero" d="M9.332 36.2c.555 1.713-.912 7.692-.912 7.692s-4.698-3.953-5.253-5.664c-.556-1.712.373-3.554 2.076-4.114 1.702-.559 3.533.376 4.09 2.089V36.2zM17.51 44.01c-.457 1.737-4.922 5.96-4.922 5.96s-1.806-5.887-1.349-7.63c.459-1.741 2.234-2.78 3.966-2.319 1.732.461 2.764 2.248 2.306 3.99zM22.556 60.293c-1.268 1.27-7.238 2.645-7.238 2.645s1.393-6 2.664-7.27c.823-.822 2.018-1.14 3.137-.835 1.119.306 1.99 1.188 2.287 2.316.296 1.127-.027 2.328-.85 3.15v-.006zM23.618 73.482c-1.039 1.467-6.703 3.831-6.703 3.831s.365-6.15 1.404-7.617c.671-.95 1.795-1.468 2.949-1.358 1.153.11 2.16.83 2.643 1.89.483 1.06.366 2.298-.305 3.248l.012.006zM6.225 52.424c1.608.793 7.698.156 7.698.156s-3.242-5.226-4.85-6.017c-1.608-.79-3.55-.12-4.336 1.498-.787 1.619-.12 3.572 1.488 4.363zM7.66 67.835c1.773.272 7.394-2.167 7.394-2.167s-4.649-4.012-6.418-4.272c-1.77-.271-3.425.953-3.694 2.735-.27 1.781.948 3.445 2.719 3.716v-.012zM11.095 82.615c1.7.58 7.653-.868 7.653-.868s-3.907-4.743-5.607-5.313c-1.7-.569-3.536.357-4.1 2.067-.566 1.71.355 3.558 2.054 4.126v-.012z" transform="translate(228 103)"/>
            <path fill="#FFF" fill-rule="nonzero" d="M9.332 36.2c.555 1.713-.912 7.692-.912 7.692s-4.698-3.953-5.253-5.664c-.556-1.712.373-3.554 2.076-4.114 1.702-.559 3.533.376 4.09 2.089V36.2zM17.51 44.01c-.457 1.737-4.922 5.96-4.922 5.96s-1.806-5.887-1.349-7.63c.459-1.741 2.234-2.78 3.966-2.319 1.732.461 2.764 2.248 2.306 3.99zM22.556 60.293c-1.268 1.27-7.238 2.645-7.238 2.645s1.393-6 2.664-7.27c.823-.822 2.018-1.14 3.137-.835 1.119.306 1.99 1.188 2.287 2.316.296 1.127-.027 2.328-.85 3.15v-.006zM23.618 73.482c-1.039 1.467-6.703 3.831-6.703 3.831s.365-6.15 1.404-7.617c.671-.95 1.795-1.468 2.949-1.358 1.153.11 2.16.83 2.643 1.89.483 1.06.366 2.298-.305 3.248l.012.006zM6.225 52.424c1.608.793 7.698.156 7.698.156s-3.242-5.226-4.85-6.017c-1.608-.79-3.55-.12-4.336 1.498-.787 1.619-.12 3.572 1.488 4.363zM7.66 67.835c1.773.272 7.394-2.167 7.394-2.167s-4.649-4.012-6.418-4.272c-1.77-.271-3.425.953-3.694 2.735-.27 1.781.948 3.445 2.719 3.716v-.012zM11.095 82.615c1.7.58 7.653-.868 7.653-.868s-3.907-4.743-5.607-5.313c-1.7-.569-3.536.357-4.1 2.067-.566 1.71.355 3.558 2.054 4.126v-.012z" transform="translate(228 103)"/>
            <path fill="#474059" fill-rule="nonzero" d="M6.358 122.742L30.905 122.742 37.043 85.081 0.222 85.081z" transform="translate(228 103)"/>
            <path fill="#000" fill-rule="nonzero" d="M4.919 85.081L10.652 120.274 31.307 120.274 30.905 122.742 6.358 122.742 0.222 85.081z" opacity=".1" transform="translate(228 103)"/>
        </g>
        <path fill="url(#prefix__a)" fill-rule="nonzero" d="M58 12H239V230H58z"/>
        <path fill="#FFF" fill-rule="nonzero" d="M61 15H237V227H61z"/>
        <path fill="#C0BCCF" fill-rule="nonzero" d="M129 39H200V42H129zM129 50H200V53H129z"/>
        <path fill="#0057AD" fill-rule="nonzero" d="M146 60H183V63H146z"/>
        <path fill="#C0BCCF" fill-rule="nonzero" d="M129 108H200V111H129zM129 119H200V122H129z" opacity=".5"/>
        <path fill="#0057AD" fill-rule="nonzero" d="M146 130H183V133H146z" opacity=".5"/>
        <path fill="#C0BCCF" fill-rule="nonzero" d="M129 178H200V181H129zM129 189H200V192H129z" opacity=".5"/>
        <path fill="#0057AD" fill-rule="nonzero" d="M146 200H183V203H146z" opacity=".5"/>
        <g fill-rule="nonzero" opacity=".5" transform="translate(70 100)">
            <path fill="#C0BCCF" d="M39.79 20.128c.008 4.74-1.688 9.326-4.78 12.92-.152.178-.31.353-.47.526-.08.09-.161.177-.245.262-.659.693-1.367 1.336-2.12 1.925l-.052.038c-1.164.911-2.427 1.687-3.767 2.312-.687.323-1.393.606-2.114.847l-.265.084c-.164.056-.333.105-.5.152l-.067.02c-3.583 1.024-7.38 1.024-10.963 0h-.03c-.291-.084-.583-.172-.852-.268l-.248-.088c-.945-.332-1.863-.739-2.745-1.214l-.055-.03c-1.402-.758-2.708-1.683-3.89-2.753l-.096-.09c-.603-.546-1.17-1.132-1.696-1.752-.07-.079-.137-.16-.204-.242-.129-.152-.251-.31-.374-.468-5.325-6.854-5.58-16.373-.63-23.502 4.95-7.13 13.958-10.218 22.24-7.625C34.152 3.776 39.79 11.45 39.79 20.128z"/>
            <path fill="url(#prefix__b)" d="M34.356 26.826l-1.506-.677c.023-.229.032-.46.029-.69.01-.194.01-.389 0-.583-.15-1.536-1.127-2.873-1.82-4.277-.633-1.282-1.035-2.666-1.187-4.088-.184-1.752 0-3.568-.643-5.215-.522-1.328-1.556-2.438-2.663-3.419-1.242-1.165-2.693-2.086-4.277-2.712-1.617-.584-3.477-.733-5.095-.137-1.46.537-2.584 1.608-3.67 2.65-.789.696-1.485 1.488-2.073 2.36-.663 1.086-.946 2.336-1.168 3.568-.348 1.973-.588 3.963-.718 5.962-.114 1.667-.292 3.559-1.717 4.58-.695.5-1.673.78-1.991 1.537-.09.227-.126.472-.105.715-.009.202.006.405.044.604.02.117.043.231.073.348-.41 1.016-.753 2.058-1.028 3.118-.213.788-.409 1.562-.584 2.312h.724l2.721.065h.038l2.92.067h.014l2.722.064h.067l.785.056h.257l10.882.25h.058l.724.018h.254l2.178.05 3.212.073h.023l2.418.058h.753l-.128-2.534c.531-3.88-.523-4.123-.523-4.123zm-12.225-.31c0 2.15-2.3 4.78-2.3 4.78l-2.316-3.153.085-.123 2.23 3.037s2.301-2.628 2.301-4.78c.054-.109.115-.214.184-.315l.053.164c-.088.124-.168.255-.237.39zm3.54 8.433c0-.108 0-.22-.021-.327-.02-.108-.018-.204-.032-.31-.015-.105-.027-.207-.041-.312-.015-.105-.035-.207-.056-.312-.02-.106-.04-.208-.064-.313 0-.035-.015-.067-.023-.105-.033-.137-.068-.274-.106-.412-.037-.137-.06-.222-.096-.33 0-.05-.03-.099-.047-.146-.017-.046-.05-.157-.076-.236l-.052-.152c-.023-.067-.047-.137-.073-.204-.044-.123-.09-.243-.137-.365-.047-.123-.097-.243-.146-.362-.1-.245-.208-.488-.316-.733-.423-.946-.899-1.877-1.337-2.8-.235-.483-.443-.978-.625-1.483l-.055.073c-.089.125-.168.257-.237.394 0 2.149-2.3 4.78-2.3 4.78l-2.316-3.154-2.026 2.92c-.292.146-.584.642-.812 1.349-.064.19-.125.4-.184.619-.04.149-.078.292-.113.458-.02.079-.038.158-.056.24l-.052.248v.038c-.036.169-.07.344-.103.522-.032.178-.07.383-.102.584-.023.127-.044.252-.061.377-.041.242-.076.487-.111.733l-.059.423-.07.543c.15.447.316.876.488 1.326.11.236.174.49.19.75 3.592.958 7.372.958 10.963 0v-.026c-.054-.245-.077-.495-.07-.745.06-.701.157-1.4.292-2.09.043-.341.062-.685.056-1.028v-.123c-.01-.11-.012-.21-.015-.306v-.003zm0 0c0-.108 0-.22-.021-.327-.02-.108-.018-.204-.032-.31-.015-.105-.027-.207-.041-.312-.015-.105-.035-.207-.056-.312-.02-.106-.04-.208-.064-.313 0-.035-.015-.067-.023-.105-.033-.137-.068-.274-.106-.412-.037-.137-.06-.222-.096-.33 0-.05-.03-.099-.047-.146-.017-.046-.05-.157-.076-.236l-.052-.152c-.023-.067-.047-.137-.073-.204-.044-.123-.09-.243-.137-.365-.047-.123-.097-.243-.146-.362-.1-.245-.208-.488-.316-.733-.423-.946-.899-1.877-1.337-2.8-.235-.483-.443-.978-.625-1.483l-.055.073c-.089.125-.168.257-.237.394 0 2.149-2.3 4.78-2.3 4.78l-2.316-3.154-2.026 2.92c-.292.146-.584.642-.812 1.349-.064.19-.125.4-.184.619-.04.149-.078.292-.113.458-.02.079-.038.158-.056.24l-.052.248v.038c-.036.169-.07.344-.103.522-.032.178-.07.383-.102.584-.023.127-.044.252-.061.377-.041.242-.076.487-.111.733l-.059.423-.07.543c.15.447.316.876.488 1.326.11.236.174.49.19.75 3.592.958 7.372.958 10.963 0v-.026c-.054-.245-.077-.495-.07-.745.06-.701.157-1.4.292-2.09.043-.341.062-.685.056-1.028v-.123c-.01-.11-.012-.21-.015-.306v-.003zm0 0c0-.108 0-.22-.021-.327-.02-.108-.018-.204-.032-.31-.015-.105-.027-.207-.041-.312-.015-.105-.035-.207-.056-.312-.02-.106-.04-.208-.064-.313 0-.035-.015-.067-.023-.105-.033-.137-.068-.274-.106-.412-.037-.137-.06-.222-.096-.33 0-.05-.03-.099-.047-.146-.017-.046-.05-.157-.076-.236l-.052-.152c-.023-.067-.047-.137-.073-.204-.044-.123-.09-.243-.137-.365-.047-.123-.097-.243-.146-.362-.1-.245-.208-.488-.316-.733-.423-.946-.899-1.877-1.337-2.8-.235-.483-.443-.978-.625-1.483l-.055.073c-.089.125-.168.257-.237.394 0 2.149-2.3 4.78-2.3 4.78l-2.316-3.154-2.026 2.92c-.292.146-.584.642-.812 1.349-.064.19-.125.4-.184.619-.04.149-.078.292-.113.458-.02.079-.038.158-.056.24l-.052.248v.038c-.036.169-.07.344-.103.522-.032.178-.07.383-.102.584-.023.127-.044.252-.061.377-.041.242-.076.487-.111.733l-.059.423-.07.543c.15.447.316.876.488 1.326.11.236.174.49.19.75 3.592.958 7.372.958 10.963 0v-.026c-.054-.245-.077-.495-.07-.745.06-.701.157-1.4.292-2.09.043-.341.062-.685.056-1.028v-.123c-.01-.11-.012-.21-.015-.306v-.003zm0 0c0-.108 0-.22-.021-.327-.02-.108-.018-.204-.032-.31-.015-.105-.027-.207-.041-.312-.015-.105-.035-.207-.056-.312-.02-.106-.04-.208-.064-.313 0-.035-.015-.067-.023-.105-.033-.137-.068-.274-.106-.412-.037-.137-.06-.222-.096-.33 0-.05-.03-.099-.047-.146-.017-.046-.05-.157-.076-.236l-.052-.152c-.023-.067-.047-.137-.073-.204-.044-.123-.09-.243-.137-.365-.047-.123-.097-.243-.146-.362-.1-.245-.208-.488-.316-.733-.423-.946-.899-1.877-1.337-2.8-.235-.483-.443-.978-.625-1.483l-.055.073c-.089.125-.168.257-.237.394 0 2.149-2.3 4.78-2.3 4.78l-2.316-3.154-2.026 2.92c-.292.146-.584.642-.812 1.349-.064.19-.125.4-.184.619-.04.149-.078.292-.113.458-.02.079-.038.158-.056.24l-.052.248v.038c-.036.169-.07.344-.103.522-.032.178-.07.383-.102.584-.023.127-.044.252-.061.377-.041.242-.076.487-.111.733l-.059.423-.07.543c.15.447.316.876.488 1.326.11.236.174.49.19.75 3.592.958 7.372.958 10.963 0v-.026c-.054-.245-.077-.495-.07-.745.06-.701.157-1.4.292-2.09.043-.341.062-.685.056-1.028v-.123c-.01-.11-.012-.21-.015-.306v-.003z"/>
            <path fill="#493545" d="M12.345 14.584H25.776V23.634999999999998H12.345z"/>
            <path fill="#C77485" d="M28.006 24.566l-5.62 7.919-5.875-.511s-7.664.508-2.555-5.364c2.456-2.823 3.259-5.176 3.43-6.855.188-1.816-.364-2.85-.364-2.85l6.385-.765c-.288.86-.324 1.785-.105 2.666.8 3.317 4.704 5.76 4.704 5.76z"/>
            <path fill="#000" d="M23.3 18.797c-1.692 1.28-3.909 1.637-5.916.952.187-1.816-.365-2.85-.365-2.85l6.385-.765c-.287.86-.324 1.784-.105 2.663z" opacity=".1"/>
            <circle cx="19.448" cy="13.451" r="6.385" fill="#C77485"/>
            <path fill="#000" d="M27.772 24.893l-.149-.584-.128-.513-.19-.76-.035-.14-.03-.116s.153-.459-.849-.31l-.187.032c-.157.032-.341.076-.551.134l-.19.059-.251.079c-.795.259-1.52.696-2.12 1.279-.27.257-.507.545-.71.858-.02.03-.035.055-.052.079-.07.108-.13.221-.184.338 0 2.301-2.3 5.11-2.3 5.11L17.6 27.194l-.044-.064-.534-.777-.19-.25-.064-.088-1.168-1.568-.292-.392-.096-.13-.143-.19-.336-.447-1.314.767-1.752 1.022-1.022 6.643v.184l.032.549.214 3.608v.05l-.374 1.495.055.029c.882.476 1.8.882 2.745 1.215l.248.087c.292.097.566.184.853.269.01.043.018.087.023.131v-.125c3.583 1.024 7.38 1.024 10.963 0l.068-.02c.166-.047.335-.097.499-.153l.265-.084c.721-.241 1.427-.524 2.114-.847l.246-5.226.175-3.77v-.216l-.999-4.003z" opacity=".1"/>
            <path fill="#FFF" d="M25.67 34.601c0-.116 0-.233-.02-.35-.02-.117-.018-.219-.032-.33-.015-.11-.027-.222-.041-.333-.015-.11-.035-.222-.056-.333-.02-.11-.04-.221-.064-.332 0-.038-.015-.073-.023-.111-.033-.146-.068-.292-.106-.441-.037-.15-.06-.237-.096-.353 0-.053-.03-.106-.047-.155-.017-.05-.05-.17-.076-.254l-.052-.164c-.023-.073-.047-.146-.073-.219-.044-.131-.09-.26-.137-.391-.047-.131-.097-.26-.146-.388-.1-.263-.208-.523-.316-.783-.423-1.01-.899-2.006-1.337-2.992-.235-.518-.444-1.047-.625-1.586l-.055.079c-.089.134-.168.275-.237.42 0 2.298-2.3 5.11-2.3 5.11l-2.316-3.372-2.026 3.115c-.292.155-.584.686-.812 1.442-.064.205-.125.427-.184.663-.04.158-.078.324-.113.49-.02.085-.038.17-.056.258l-.052.265v.041c-.036.181-.07.368-.103.558-.032.19-.07.409-.102.616-.023.134-.044.268-.061.403-.041.26-.076.522-.111.782-.02.152-.041.292-.059.453l-.07.584c.15.479.316.952.488 1.416.11.254.174.526.19.803 3.583 1.024 7.38 1.024 10.963 0v-.03c-.054-.262-.077-.53-.07-.797.06-.749.157-1.494.292-2.233.043-.364.062-.731.056-1.098v-.131c-.01-.111-.012-.216-.015-.322zm0 0c0-.116 0-.233-.02-.35-.02-.117-.018-.219-.032-.33-.015-.11-.027-.222-.041-.333-.015-.11-.035-.222-.056-.333-.02-.11-.04-.221-.064-.332 0-.038-.015-.073-.023-.111-.033-.146-.068-.292-.106-.441-.037-.15-.06-.237-.096-.353 0-.053-.03-.106-.047-.155-.017-.05-.05-.17-.076-.254l-.052-.164c-.023-.073-.047-.146-.073-.219-.044-.131-.09-.26-.137-.391-.047-.131-.097-.26-.146-.388-.1-.263-.208-.523-.316-.783-.423-1.01-.899-2.006-1.337-2.992-.235-.518-.444-1.047-.625-1.586l-.055.079c-.089.134-.168.275-.237.42 0 2.298-2.3 5.11-2.3 5.11l-2.316-3.372-2.026 3.115c-.292.155-.584.686-.812 1.442-.064.205-.125.427-.184.663-.04.158-.078.324-.113.49-.02.085-.038.17-.056.258l-.052.265v.041c-.036.181-.07.368-.103.558-.032.19-.07.409-.102.616-.023.134-.044.268-.061.403-.041.26-.076.522-.111.782-.02.152-.041.292-.059.453l-.07.584c.15.479.316.952.488 1.416.11.254.174.526.19.803 3.583 1.024 7.38 1.024 10.963 0v-.03c-.054-.262-.077-.53-.07-.797.06-.749.157-1.494.292-2.233.043-.364.062-.731.056-1.098v-.131c-.01-.111-.012-.216-.015-.322zm0 0c0-.116 0-.233-.02-.35-.02-.117-.018-.219-.032-.33-.015-.11-.027-.222-.041-.333-.015-.11-.035-.222-.056-.333-.02-.11-.04-.221-.064-.332 0-.038-.015-.073-.023-.111-.033-.146-.068-.292-.106-.441-.037-.15-.06-.237-.096-.353 0-.053-.03-.106-.047-.155-.017-.05-.05-.17-.076-.254l-.052-.164c-.023-.073-.047-.146-.073-.219-.044-.131-.09-.26-.137-.391-.047-.131-.097-.26-.146-.388-.1-.263-.208-.523-.316-.783-.423-1.01-.899-2.006-1.337-2.992-.235-.518-.444-1.047-.625-1.586l-.055.079c-.089.134-.168.275-.237.42 0 2.298-2.3 5.11-2.3 5.11l-2.316-3.372-2.026 3.115c-.292.155-.584.686-.812 1.442-.064.205-.125.427-.184.663-.04.158-.078.324-.113.49-.02.085-.038.17-.056.258l-.052.265v.041c-.036.181-.07.368-.103.558-.032.19-.07.409-.102.616-.023.134-.044.268-.061.403-.041.26-.076.522-.111.782-.02.152-.041.292-.059.453l-.07.584c.15.479.316.952.488 1.416.11.254.174.526.19.803 3.583 1.024 7.38 1.024 10.963 0v-.03c-.054-.262-.077-.53-.07-.797.06-.749.157-1.494.292-2.233.043-.364.062-.731.056-1.098v-.131c-.01-.111-.012-.216-.015-.322zm3.095-5.48l-1.042-4.16-.178-.713-.05-.195-.254-1.017v-.026c.006-.045-.001-.09-.02-.131-.039-.076-.135-.155-.36-.175-.085-.006-.171-.006-.257 0-.253.025-.504.072-.75.14-.12.032-.248.067-.385.11l-.251.08h-.024c-.672.22-1.297.567-1.84 1.021-.358.3-.672.647-.934 1.034l-.055.079c-.089.134-.168.275-.237.42 0 2.298-2.3 5.11-2.3 5.11l-2.316-3.372-.131-.19-.023-.032-.336-.494-.254-.338-.067-.088-1.197-1.597-.38-.517v-.017l-.131-.179-.251-.332-.876.51-2.19 1.276-1.01 6.573v.07l.029.479.216 3.658v.207l-.33 1.317c.882.476 1.8.882 2.745 1.215l.248.087c.292.097.566.184.852.269.01.043.019.087.024.131v-.125c3.582 1.024 7.38 1.024 10.963 0l.067-.02c.167-.047.336-.097.5-.153l.265-.084c.72-.241 1.427-.524 2.114-.847l.242-5.22.176-3.729-.012-.035zm-14.36 10.082c.011.043.02.087.024.131v-.125l-.023-.006zM25.67 34.6c0-.116 0-.233-.02-.35-.02-.117-.018-.219-.032-.33-.015-.11-.027-.222-.041-.333-.015-.11-.035-.222-.056-.333-.02-.11-.04-.221-.064-.332 0-.038-.015-.073-.023-.111-.033-.146-.068-.292-.106-.441-.037-.15-.06-.237-.096-.353 0-.053-.03-.106-.047-.155-.017-.05-.05-.17-.076-.254l-.052-.164c-.023-.073-.047-.146-.073-.219-.044-.131-.09-.26-.137-.391-.047-.131-.097-.26-.146-.388-.1-.263-.208-.523-.316-.783-.423-1.01-.899-2.006-1.337-2.992-.235-.518-.444-1.047-.625-1.586l-.055.079c-.089.134-.168.275-.237.42 0 2.298-2.3 5.11-2.3 5.11l-2.316-3.372-2.026 3.115c-.292.155-.584.686-.812 1.442-.064.205-.125.427-.184.663-.04.158-.078.324-.113.49-.02.085-.038.17-.056.258l-.052.265v.041c-.036.181-.07.368-.103.558-.032.19-.07.409-.102.616-.023.134-.044.268-.061.403-.041.26-.076.522-.111.782-.02.152-.041.292-.059.453l-.07.584c.15.479.316.952.488 1.416.11.254.174.526.19.803 3.583 1.024 7.38 1.024 10.963 0v-.03c-.054-.262-.077-.53-.07-.797.06-.749.157-1.494.292-2.233.043-.364.062-.731.056-1.098v-.131c-.01-.111-.012-.216-.015-.322zm0 0c0-.116 0-.233-.02-.35-.02-.117-.018-.219-.032-.33-.015-.11-.027-.222-.041-.333-.015-.11-.035-.222-.056-.333-.02-.11-.04-.221-.064-.332 0-.038-.015-.073-.023-.111-.033-.146-.068-.292-.106-.441-.037-.15-.06-.237-.096-.353 0-.053-.03-.106-.047-.155-.017-.05-.05-.17-.076-.254l-.052-.164c-.023-.073-.047-.146-.073-.219-.044-.131-.09-.26-.137-.391-.047-.131-.097-.26-.146-.388-.1-.263-.208-.523-.316-.783-.423-1.01-.899-2.006-1.337-2.992-.235-.518-.444-1.047-.625-1.586l-.055.079c-.089.134-.168.275-.237.42 0 2.298-2.3 5.11-2.3 5.11l-2.316-3.372-2.026 3.115c-.292.155-.584.686-.812 1.442-.064.205-.125.427-.184.663-.04.158-.078.324-.113.49-.02.085-.038.17-.056.258l-.052.265v.041c-.036.181-.07.368-.103.558-.032.19-.07.409-.102.616-.023.134-.044.268-.061.403-.041.26-.076.522-.111.782-.02.152-.041.292-.059.453l-.07.584c.15.479.316.952.488 1.416.11.254.174.526.19.803 3.583 1.024 7.38 1.024 10.963 0v-.03c-.054-.262-.077-.53-.07-.797.06-.749.157-1.494.292-2.233.043-.364.062-.731.056-1.098v-.131c-.01-.111-.012-.216-.015-.322zm0 0c0-.116 0-.233-.02-.35-.02-.117-.018-.219-.032-.33-.015-.11-.027-.222-.041-.333-.015-.11-.035-.222-.056-.333-.02-.11-.04-.221-.064-.332 0-.038-.015-.073-.023-.111-.033-.146-.068-.292-.106-.441-.037-.15-.06-.237-.096-.353 0-.053-.03-.106-.047-.155-.017-.05-.05-.17-.076-.254l-.052-.164c-.023-.073-.047-.146-.073-.219-.044-.131-.09-.26-.137-.391-.047-.131-.097-.26-.146-.388-.1-.263-.208-.523-.316-.783-.423-1.01-.899-2.006-1.337-2.992-.235-.518-.444-1.047-.625-1.586l-.055.079c-.089.134-.168.275-.237.42 0 2.298-2.3 5.11-2.3 5.11l-2.316-3.372-2.026 3.115c-.292.155-.584.686-.812 1.442-.064.205-.125.427-.184.663-.04.158-.078.324-.113.49-.02.085-.038.17-.056.258l-.052.265v.041c-.036.181-.07.368-.103.558-.032.19-.07.409-.102.616-.023.134-.044.268-.061.403-.041.26-.076.522-.111.782-.02.152-.041.292-.059.453l-.07.584c.15.479.316.952.488 1.416.11.254.174.526.19.803 3.583 1.024 7.38 1.024 10.963 0v-.03c-.054-.262-.077-.53-.07-.797.06-.749.157-1.494.292-2.233.043-.364.062-.731.056-1.098v-.131c-.01-.111-.012-.216-.015-.322zm0 0c0-.116 0-.233-.02-.35-.02-.117-.018-.219-.032-.33-.015-.11-.027-.222-.041-.333-.015-.11-.035-.222-.056-.333-.02-.11-.04-.221-.064-.332 0-.038-.015-.073-.023-.111-.033-.146-.068-.292-.106-.441-.037-.15-.06-.237-.096-.353 0-.053-.03-.106-.047-.155-.017-.05-.05-.17-.076-.254l-.052-.164c-.023-.073-.047-.146-.073-.219-.044-.131-.09-.26-.137-.391-.047-.131-.097-.26-.146-.388-.1-.263-.208-.523-.316-.783-.423-1.01-.899-2.006-1.337-2.992-.235-.518-.444-1.047-.625-1.586l-.055.079c-.089.134-.168.275-.237.42 0 2.298-2.3 5.11-2.3 5.11l-2.316-3.372-2.026 3.115c-.292.155-.584.686-.812 1.442-.064.205-.125.427-.184.663-.04.158-.078.324-.113.49-.02.085-.038.17-.056.258l-.052.265v.041c-.036.181-.07.368-.103.558-.032.19-.07.409-.102.616-.023.134-.044.268-.061.403-.041.26-.076.522-.111.782-.02.152-.041.292-.059.453l-.07.584c.15.479.316.952.488 1.416.11.254.174.526.19.803 3.583 1.024 7.38 1.024 10.963 0v-.03c-.054-.262-.077-.53-.07-.797.06-.749.157-1.494.292-2.233.043-.364.062-.731.056-1.098v-.131c-.01-.111-.012-.216-.015-.322zm0 0c0-.116 0-.233-.02-.35-.02-.117-.018-.219-.032-.33-.015-.11-.027-.222-.041-.333-.015-.11-.035-.222-.056-.333-.02-.11-.04-.221-.064-.332 0-.038-.015-.073-.023-.111-.033-.146-.068-.292-.106-.441-.037-.15-.06-.237-.096-.353 0-.053-.03-.106-.047-.155-.017-.05-.05-.17-.076-.254l-.052-.164c-.023-.073-.047-.146-.073-.219-.044-.131-.09-.26-.137-.391-.047-.131-.097-.26-.146-.388-.1-.263-.208-.523-.316-.783-.423-1.01-.899-2.006-1.337-2.992-.235-.518-.444-1.047-.625-1.586l-.055.079c-.089.134-.168.275-.237.42 0 2.298-2.3 5.11-2.3 5.11l-2.316-3.372-2.026 3.115c-.292.155-.584.686-.812 1.442-.064.205-.125.427-.184.663-.04.158-.078.324-.113.49-.02.085-.038.17-.056.258l-.052.265v.041c-.036.181-.07.368-.103.558-.032.19-.07.409-.102.616-.023.134-.044.268-.061.403-.041.26-.076.522-.111.782-.02.152-.041.292-.059.453l-.07.584c.15.479.316.952.488 1.416.11.254.174.526.19.803 3.583 1.024 7.38 1.024 10.963 0v-.03c-.054-.262-.077-.53-.07-.797.06-.749.157-1.494.292-2.233.043-.364.062-.731.056-1.098v-.131c-.01-.111-.012-.216-.015-.322zm0 0c0-.116 0-.233-.02-.35-.02-.117-.018-.219-.032-.33-.015-.11-.027-.222-.041-.333-.015-.11-.035-.222-.056-.333-.02-.11-.04-.221-.064-.332 0-.038-.015-.073-.023-.111-.033-.146-.068-.292-.106-.441-.037-.15-.06-.237-.096-.353 0-.053-.03-.106-.047-.155-.017-.05-.05-.17-.076-.254l-.052-.164c-.023-.073-.047-.146-.073-.219-.044-.131-.09-.26-.137-.391-.047-.131-.097-.26-.146-.388-.1-.263-.208-.523-.316-.783-.423-1.01-.899-2.006-1.337-2.992-.235-.518-.444-1.047-.625-1.586l-.055.079c-.089.134-.168.275-.237.42 0 2.298-2.3 5.11-2.3 5.11l-2.316-3.372-2.026 3.115c-.292.155-.584.686-.812 1.442-.064.205-.125.427-.184.663-.04.158-.078.324-.113.49-.02.085-.038.17-.056.258l-.052.265v.041c-.036.181-.07.368-.103.558-.032.19-.07.409-.102.616-.023.134-.044.268-.061.403-.041.26-.076.522-.111.782-.02.152-.041.292-.059.453l-.07.584c.15.479.316.952.488 1.416.11.254.174.526.19.803 3.583 1.024 7.38 1.024 10.963 0v-.03c-.054-.262-.077-.53-.07-.797.06-.749.157-1.494.292-2.233.043-.364.062-.731.056-1.098v-.131c-.01-.111-.012-.216-.015-.322zm0 0c0-.116 0-.233-.02-.35-.02-.117-.018-.219-.032-.33-.015-.11-.027-.222-.041-.333-.015-.11-.035-.222-.056-.333-.02-.11-.04-.221-.064-.332 0-.038-.015-.073-.023-.111-.033-.146-.068-.292-.106-.441-.037-.15-.06-.237-.096-.353 0-.053-.03-.106-.047-.155-.017-.05-.05-.17-.076-.254l-.052-.164c-.023-.073-.047-.146-.073-.219-.044-.131-.09-.26-.137-.391-.047-.131-.097-.26-.146-.388-.1-.263-.208-.523-.316-.783-.423-1.01-.899-2.006-1.337-2.992-.235-.518-.444-1.047-.625-1.586l-.055.079c-.089.134-.168.275-.237.42 0 2.298-2.3 5.11-2.3 5.11l-2.316-3.372-2.026 3.115c-.292.155-.584.686-.812 1.442-.064.205-.125.427-.184.663-.04.158-.078.324-.113.49-.02.085-.038.17-.056.258l-.052.265v.041c-.036.181-.07.368-.103.558-.032.19-.07.409-.102.616-.023.134-.044.268-.061.403-.041.26-.076.522-.111.782-.02.152-.041.292-.059.453l-.07.584c.15.479.316.952.488 1.416.11.254.174.526.19.803 3.583 1.024 7.38 1.024 10.963 0v-.03c-.054-.262-.077-.53-.07-.797.06-.749.157-1.494.292-2.233.043-.364.062-.731.056-1.098v-.131c-.01-.111-.012-.216-.015-.322zm0 0c0-.116 0-.233-.02-.35-.02-.117-.018-.219-.032-.33-.015-.11-.027-.222-.041-.333-.015-.11-.035-.222-.056-.333-.02-.11-.04-.221-.064-.332 0-.038-.015-.073-.023-.111-.033-.146-.068-.292-.106-.441-.037-.15-.06-.237-.096-.353 0-.053-.03-.106-.047-.155-.017-.05-.05-.17-.076-.254l-.052-.164c-.023-.073-.047-.146-.073-.219-.044-.131-.09-.26-.137-.391-.047-.131-.097-.26-.146-.388-.1-.263-.208-.523-.316-.783-.423-1.01-.899-2.006-1.337-2.992-.235-.518-.444-1.047-.625-1.586l-.055.079c-.089.134-.168.275-.237.42 0 2.298-2.3 5.11-2.3 5.11l-2.316-3.372-2.026 3.115c-.292.155-.584.686-.812 1.442-.064.205-.125.427-.184.663-.04.158-.078.324-.113.49-.02.085-.038.17-.056.258l-.052.265v.041c-.036.181-.07.368-.103.558-.032.19-.07.409-.102.616-.023.134-.044.268-.061.403-.041.26-.076.522-.111.782-.02.152-.041.292-.059.453l-.07.584c.15.479.316.952.488 1.416.11.254.174.526.19.803 3.583 1.024 7.38 1.024 10.963 0v-.03c-.054-.262-.077-.53-.07-.797.06-.749.157-1.494.292-2.233.043-.364.062-.731.056-1.098v-.131c-.01-.111-.012-.216-.015-.322z"/>
            <path fill="#000" d="M17.556 27.127l-.195-.026c-.296-.04-.588-.099-.876-.175l-.108-.03c-.713-.201-1.492-.563-1.668-1.2-.052-.205-.046-.42.018-.622.098-.347.231-.683.397-1.004v-.017c.022-.046.046-.09.073-.132.241-.47.605-.867 1.054-1.147l-.35.055-2.967.482-4.598.742s-.818-.164-1.93 2.902c0 .038-.026.073-.038.114-.269.75-.552 1.687-.844 2.858-.201.812-.385 1.609-.555 2.382l-.146.692c.527.621 1.093 1.206 1.697 1.752l.096.09c1.182 1.07 2.487 1.995 3.89 2.754l.055.03c.881.475 1.8.881 2.744 1.214l.248.087c.053-.54.111-1.138.181-1.751 0-.062 0-.123.024-.184l.07-.584c.017-.15.038-.292.058-.453.035-.26.07-.522.111-.782.018-.135.038-.269.061-.403.033-.207.068-.415.103-.616.035-.202.067-.377.102-.558v-.04l.052-.266c.018-.088.035-.173.056-.257.035-.167.073-.333.114-.49.058-.237.12-.46.184-.664.233-.756.505-1.287.811-1.442l2.027-3.115.084-.132.038-.058-.073-.006z" opacity=".1"/>
            <path fill="#444176" d="M17.384 27.133l-2.152 3.305c-.292.149-.566.666-.797 1.398-.067.217-.134.453-.199.701-.29 1.261-.51 2.537-.66 3.822 0 .059 0 .117-.023.175-.099.812-.18 1.61-.248 2.313-.945-.333-1.863-.74-2.744-1.215l-.056-.03c-1.402-.758-2.707-1.682-3.889-2.752l-.096-.09c-.604-.547-1.17-1.132-1.697-1.753-.07-.079-.137-.16-.204-.242.032-.152.064-.292.1-.456.166-.773.35-1.567.551-2.376.266-1.109.597-2.2.993-3.27.01-.032.023-.063.038-.094 1.033-2.66 1.778-2.51 1.778-2.51l4.855-.783L16 22.78l-.096.055c-.339.24-.626.546-.844.9l-.085.142c-.035.056-.067.117-.102.178-.17.326-.305.668-.403 1.022-.09.277-.065.578.07.835.292.567 1.121.876 1.802 1.046l.113.029c.307.068.617.117.929.146z"/>
            <path fill="#000" d="M34.257 33.034l-.12-2.593c.511-4.088-.51-4.342-.51-4.342l-1.215-.584h-.032l-4.885-2.368-.19-.093-.058-.026-.637-.31-.403-.195-.753-.365-.254-.123v1.013c0 .292.026.634.05 1.03.052 1 .149 2.337.32 3.913.097.914.22 1.913.372 2.984.09.634.154 1.264.195 1.88.131 2.075.067 4.157-.192 6.22l.265-.085c.72-.241 1.427-.524 2.114-.847 1.34-.625 2.603-1.4 3.767-2.312l.052-.038c.753-.589 1.461-1.232 2.12-1.924l-.006-.835z" opacity=".1"/>
            <path fill="#444176" d="M34.514 33.034l-.12-2.599c.511-4.088-.51-4.342-.51-4.342l-1.46-.706h-.03l-4.9-2.377-.224-.108-.044-.02-.359-.175-.476-.231-.94-.456v.929c0 .292.026.674.053 1.11.05.93.137 2.151.292 3.602.105.996.236 2.103.408 3.294.09.636.154 1.266.193 1.889.13 2.045.07 4.097-.18 6.131.72-.24 1.425-.523 2.113-.847 1.34-.624 2.603-1.4 3.766-2.312l.053-.038c.753-.588 1.461-1.232 2.12-1.924.085-.086.167-.173.245-.263v-.557z"/>
            <path fill="#000" d="M13.869 6.447c-.292.403-.269.957-.4 1.46-.313 1.141-1.55 1.857-1.834 3.007-.166.671.026 1.384-.088 2.067-.207 1.258-1.357 2.111-2 3.212-.66 1.149-.757 2.536-.265 3.766.15.306.274.625.37.952.074.487.043.985-.09 1.46-.219 1.04-.444 2.184.058 3.121.424.791 1.303 1.255 2.187 1.401.894.101 1.797.06 2.678-.122.966-.15 1.956-.321 2.797-.818l-3.162-7.632c-.319-.77-.646-1.568-.643-2.403.026-.616.16-1.222.395-1.792.612-1.652 1.5-3.187 2.627-4.54.459.53.424 1.34.806 1.93.338.435.788.771 1.302.972 1.499.73 3.038 1.374 4.61 1.927.2.025.376.148.466.329.09.18.084.394-.016.57l-1.191 4.917c-.263 1.083-.494 2.335.18 3.211.675.876 2.197 1.29 2.205 2.42-.012.18-.012.36 0 .538.08.528.707.782 1.241.809 1.812.036 3.383-1.246 3.711-3.028.292-1.933-.987-3.714-1.521-5.597-.9-3.168.292-6.885-1.474-9.667-1.431-2.257-4.038-2.87-6.514-3.15-1.738-.205-5.212-.935-6.435.68z" opacity=".1"/>
            <path fill="#493545" d="M13.869 6.155c-.292.403-.269.957-.4 1.46-.313 1.141-1.55 1.857-1.834 3.007-.166.671.026 1.384-.088 2.067-.207 1.258-1.357 2.111-2 3.212-.66 1.149-.757 2.536-.265 3.766.15.306.274.625.37.952.074.488.043.985-.09 1.46-.219 1.04-.444 2.184.058 3.121.424.791 1.303 1.255 2.187 1.401.894.101 1.797.06 2.678-.122.966-.15 1.956-.321 2.797-.818L14.12 18.03c-.319-.77-.646-1.568-.643-2.403.026-.616.16-1.222.395-1.792.612-1.652 1.5-3.187 2.627-4.54.459.53.424 1.34.806 1.93.338.435.788.771 1.302.972 1.499.73 3.038 1.374 4.61 1.927.2.025.376.148.466.329.09.18.084.394-.016.57l-1.191 4.917c-.263 1.083-.494 2.335.18 3.211.675.876 2.197 1.29 2.205 2.42-.012.18-.012.36 0 .538.08.528.707.783 1.241.809 1.812.036 3.383-1.246 3.711-3.028.292-1.933-.987-3.714-1.521-5.597-.9-3.168.292-6.885-1.474-9.667-1.431-2.257-4.038-2.87-6.514-3.15-1.738-.205-5.212-.935-6.435.68z"/>
        </g>
        <g fill-rule="nonzero" opacity=".5" transform="translate(70 170)">
            <path fill="#C0BCCF" d="M39.79 20.128c.008 4.74-1.688 9.326-4.78 12.92-.152.178-.31.353-.47.526-.08.09-.161.177-.245.262-.659.693-1.367 1.336-2.12 1.925l-.052.038c-1.164.911-2.427 1.687-3.767 2.312-.687.323-1.393.606-2.114.847l-.265.084c-.164.056-.333.105-.5.152l-.067.02c-3.583 1.024-7.38 1.024-10.963 0h-.03c-.291-.084-.583-.172-.852-.268l-.248-.088c-.945-.332-1.863-.739-2.745-1.214l-.055-.03c-1.402-.758-2.708-1.683-3.89-2.753l-.096-.09c-.603-.546-1.17-1.132-1.696-1.752-.07-.079-.137-.16-.204-.242-.129-.152-.251-.31-.374-.468-5.325-6.854-5.58-16.373-.63-23.502 4.95-7.13 13.958-10.218 22.24-7.625C34.152 3.776 39.79 11.45 39.79 20.128z"/>
            <path fill="url(#prefix__c)" d="M34.514 32.923l-.12-2.628c.511-4.155-.51-4.415-.51-4.415l-1.46-.718-.03-.015-4.9-2.414-.224-.111-.03-.12s.097-.292-.387-.341c-.094-.237-.136-.49-.123-.745.05-.56.473-1.001.803-1.46.843-1.247 1.185-2.766.96-4.254-.23-1.474-.786-2.88-1.629-4.11l-.093-.138c.114-.42.172-.855.172-1.29 0-3.361-3.398-6.085-7.591-6.085-3.796 0-6.958 2.245-7.507 5.174-.086.114-.163.235-.23.362-.771 1.442.42 2.52.458 3.959.026.992-.64 1.842-1.168 2.683-.528.84-.92 1.96-.377 2.788.179.275.447.482.608.768.563.996-.374 2.137-.716 3.23-.039.127-.07.256-.093.388l-2.254.368s-.745-.152-1.778 2.551c-.015.032-.027.064-.038.097-.396 1.088-.727 2.198-.993 3.325-.201.824-.385 1.63-.552 2.415-.035.155-.067.31-.099.464.067.082.134.167.205.245.525.633 1.092 1.23 1.696 1.787l.096.094c1.18 1.086 2.485 2.026 3.89 2.8l.055.029c.88.483 1.798.896 2.744 1.235l.248.087c.292.1.567.187.853.275.01.044.018.089.023.134v-.128c3.58 1.04 7.383 1.04 10.964 0l.067-.02c.166-.047.336-.1.5-.155l.265-.085c.72-.245 1.427-.533 2.114-.861 1.341-.637 2.605-1.425 3.766-2.35l.053-.039c.753-.599 1.462-1.253 2.12-1.956.085-.086.167-.174.245-.266l-.003-.554z"/>
            <path fill="#444176" d="M12.073 13.994c.026.978-.64 1.813-1.168 2.628-.528.814-.92 1.927-.377 2.742.179.268.447.475.608.756.563.978-.374 2.102-.716 3.176-.394 1.241.065 2.628.894 3.635.83 1.008 1.974 1.688 3.13 2.287 2.43 1.295 5.04 2.224 7.743 2.756 1.413.26 2.92.376 4.245-.19 1.893-.868 2.946-2.92 2.549-4.964-.336-1.535-1.46-2.77-2.044-4.221-.136-.285-.202-.599-.192-.914.05-.552.473-.984.802-1.431.828-1.216 1.166-2.7.946-4.155-.23-1.454-.787-2.838-1.629-4.046-.3-.501-.697-.938-1.168-1.285-.636-.43-1.424-.552-2.184-.66-3.17-.444-6.455-.928-9.652-1.092-1.01-.052-1.752.146-2.251 1.092-.762 1.41.426 2.47.464 3.886z"/>
            <path fill="#C77485" d="M28.403 23.924l-6.018 8.558-5.874-.511s-.193 2.044-2.555-5.364c-1.32-4.143 1.364-2.703 1.892-3.85.529-1.148 1.46-2.161 1.539-3.008.187-1.816-.365-2.85-.365-2.85l6.385-.765c-.288.86-.324 1.786-.105 2.666.8 3.323 5.1 5.124 5.1 5.124z"/>
            <ellipse cx="19.352" cy="10.642" fill="#444176" rx="7.591" ry="5.985"/>
            <path fill="#000" d="M23.3 18.797c-1.692 1.28-3.909 1.637-5.916.952.187-1.816-.365-2.85-.365-2.85l6.385-.765c-.287.86-.324 1.784-.105 2.663z" opacity=".1"/>
            <circle cx="19.448" cy="13.451" r="6.385" fill="#C77485"/>
            <path fill="#000" d="M27.772 24.893l-.149-.584-.128-.513-.19-.76-.035-.14-.03-.116s.153-.459-.849-.31l-.187.032c-.157.032-.341.076-.551.134l-.19.059-.251.079c-.795.259-1.52.696-2.12 1.279-.27.257-.507.545-.71.858-.02.03-.035.055-.052.079-.07.108-.13.221-.184.338 0 2.301-2.3 5.11-2.3 5.11L17.6 27.194l-.044-.064-.534-.777-.19-.25-.064-.088-1.168-1.568-.292-.392-.096-.13-.143-.19-.336-.447-1.314.767-1.752 1.022-1.022 6.643v.184l.032.549.214 3.608v.05l-.374 1.495.055.029c.882.476 1.8.882 2.745 1.215l.248.087c.292.097.566.184.853.269.01.043.018.087.023.131v-.125c3.583 1.024 7.38 1.024 10.963 0l.068-.02c.166-.047.335-.097.499-.153l.265-.084c.721-.241 1.427-.524 2.114-.847l.246-5.226.175-3.77v-.216l-.999-4.003z" opacity=".1"/>
            <path fill="#444176" d="M25.67 34.601c0-.116 0-.233-.02-.35-.02-.117-.018-.219-.032-.33-.015-.11-.027-.222-.041-.333-.015-.11-.035-.222-.056-.333-.02-.11-.04-.221-.064-.332 0-.038-.015-.073-.023-.111-.033-.146-.068-.292-.106-.441-.037-.15-.06-.237-.096-.353 0-.053-.03-.106-.047-.155-.017-.05-.05-.17-.076-.254l-.052-.164c-.023-.073-.047-.146-.073-.219-.044-.131-.09-.26-.137-.391-.047-.131-.097-.26-.146-.388-.1-.263-.208-.523-.316-.783-.423-1.01-.899-2.006-1.337-2.992-.235-.518-.444-1.047-.625-1.586l-.055.079c-.089.134-.168.275-.237.42 0 2.298-2.3 5.11-2.3 5.11l-2.316-3.372-2.026 3.115c-.292.155-.584.686-.812 1.442-.064.205-.125.427-.184.663-.04.158-.078.324-.113.49-.02.085-.038.17-.056.258l-.052.265v.041c-.036.181-.07.368-.103.558-.032.19-.07.409-.102.616-.023.134-.044.268-.061.403-.041.26-.076.522-.111.782-.02.152-.041.292-.059.453l-.07.584c.15.479.316.952.488 1.416.11.254.174.526.19.803 3.583 1.024 7.38 1.024 10.963 0v-.03c-.054-.262-.077-.53-.07-.797.06-.749.157-1.494.292-2.233.043-.364.062-.731.056-1.098v-.131c-.01-.111-.012-.216-.015-.322zm0 0c0-.116 0-.233-.02-.35-.02-.117-.018-.219-.032-.33-.015-.11-.027-.222-.041-.333-.015-.11-.035-.222-.056-.333-.02-.11-.04-.221-.064-.332 0-.038-.015-.073-.023-.111-.033-.146-.068-.292-.106-.441-.037-.15-.06-.237-.096-.353 0-.053-.03-.106-.047-.155-.017-.05-.05-.17-.076-.254l-.052-.164c-.023-.073-.047-.146-.073-.219-.044-.131-.09-.26-.137-.391-.047-.131-.097-.26-.146-.388-.1-.263-.208-.523-.316-.783-.423-1.01-.899-2.006-1.337-2.992-.235-.518-.444-1.047-.625-1.586l-.055.079c-.089.134-.168.275-.237.42 0 2.298-2.3 5.11-2.3 5.11l-2.316-3.372-2.026 3.115c-.292.155-.584.686-.812 1.442-.064.205-.125.427-.184.663-.04.158-.078.324-.113.49-.02.085-.038.17-.056.258l-.052.265v.041c-.036.181-.07.368-.103.558-.032.19-.07.409-.102.616-.023.134-.044.268-.061.403-.041.26-.076.522-.111.782-.02.152-.041.292-.059.453l-.07.584c.15.479.316.952.488 1.416.11.254.174.526.19.803 3.583 1.024 7.38 1.024 10.963 0v-.03c-.054-.262-.077-.53-.07-.797.06-.749.157-1.494.292-2.233.043-.364.062-.731.056-1.098v-.131c-.01-.111-.012-.216-.015-.322zm0 0c0-.116 0-.233-.02-.35-.02-.117-.018-.219-.032-.33-.015-.11-.027-.222-.041-.333-.015-.11-.035-.222-.056-.333-.02-.11-.04-.221-.064-.332 0-.038-.015-.073-.023-.111-.033-.146-.068-.292-.106-.441-.037-.15-.06-.237-.096-.353 0-.053-.03-.106-.047-.155-.017-.05-.05-.17-.076-.254l-.052-.164c-.023-.073-.047-.146-.073-.219-.044-.131-.09-.26-.137-.391-.047-.131-.097-.26-.146-.388-.1-.263-.208-.523-.316-.783-.423-1.01-.899-2.006-1.337-2.992-.235-.518-.444-1.047-.625-1.586l-.055.079c-.089.134-.168.275-.237.42 0 2.298-2.3 5.11-2.3 5.11l-2.316-3.372-2.026 3.115c-.292.155-.584.686-.812 1.442-.064.205-.125.427-.184.663-.04.158-.078.324-.113.49-.02.085-.038.17-.056.258l-.052.265v.041c-.036.181-.07.368-.103.558-.032.19-.07.409-.102.616-.023.134-.044.268-.061.403-.041.26-.076.522-.111.782-.02.152-.041.292-.059.453l-.07.584c.15.479.316.952.488 1.416.11.254.174.526.19.803 3.583 1.024 7.38 1.024 10.963 0v-.03c-.054-.262-.077-.53-.07-.797.06-.749.157-1.494.292-2.233.043-.364.062-.731.056-1.098v-.131c-.01-.111-.012-.216-.015-.322zm3.095-5.48l-1.042-4.16-.178-.713-.05-.195-.254-1.017v-.026c.006-.045-.001-.09-.02-.131-.039-.076-.135-.155-.36-.175-.085-.006-.171-.006-.257 0-.253.025-.504.072-.75.14-.12.032-.248.067-.385.11l-.251.08h-.024c-.672.22-1.297.567-1.84 1.021-.358.3-.672.647-.934 1.034l-.055.079c-.089.134-.168.275-.237.42 0 2.298-2.3 5.11-2.3 5.11l-2.316-3.372-.131-.19-.023-.032-.336-.494-.254-.338-.067-.088-1.197-1.597-.38-.517v-.017l-.131-.179-.251-.332-.876.51-2.19 1.276-1.01 6.573v.07l.029.479.216 3.658v.207l-.33 1.317c.882.476 1.8.882 2.745 1.215l.248.087c.292.097.566.184.852.269.01.043.019.087.024.131v-.125c3.582 1.024 7.38 1.024 10.963 0l.067-.02c.167-.047.336-.097.5-.153l.265-.084c.72-.241 1.427-.524 2.114-.847l.242-5.22.176-3.729-.012-.035zm-14.36 10.082c.011.043.02.087.024.131v-.125l-.023-.006zM25.67 34.6c0-.116 0-.233-.02-.35-.02-.117-.018-.219-.032-.33-.015-.11-.027-.222-.041-.333-.015-.11-.035-.222-.056-.333-.02-.11-.04-.221-.064-.332 0-.038-.015-.073-.023-.111-.033-.146-.068-.292-.106-.441-.037-.15-.06-.237-.096-.353 0-.053-.03-.106-.047-.155-.017-.05-.05-.17-.076-.254l-.052-.164c-.023-.073-.047-.146-.073-.219-.044-.131-.09-.26-.137-.391-.047-.131-.097-.26-.146-.388-.1-.263-.208-.523-.316-.783-.423-1.01-.899-2.006-1.337-2.992-.235-.518-.444-1.047-.625-1.586l-.055.079c-.089.134-.168.275-.237.42 0 2.298-2.3 5.11-2.3 5.11l-2.316-3.372-2.026 3.115c-.292.155-.584.686-.812 1.442-.064.205-.125.427-.184.663-.04.158-.078.324-.113.49-.02.085-.038.17-.056.258l-.052.265v.041c-.036.181-.07.368-.103.558-.032.19-.07.409-.102.616-.023.134-.044.268-.061.403-.041.26-.076.522-.111.782-.02.152-.041.292-.059.453l-.07.584c.15.479.316.952.488 1.416.11.254.174.526.19.803 3.583 1.024 7.38 1.024 10.963 0v-.03c-.054-.262-.077-.53-.07-.797.06-.749.157-1.494.292-2.233.043-.364.062-.731.056-1.098v-.131c-.01-.111-.012-.216-.015-.322zm0 0c0-.116 0-.233-.02-.35-.02-.117-.018-.219-.032-.33-.015-.11-.027-.222-.041-.333-.015-.11-.035-.222-.056-.333-.02-.11-.04-.221-.064-.332 0-.038-.015-.073-.023-.111-.033-.146-.068-.292-.106-.441-.037-.15-.06-.237-.096-.353 0-.053-.03-.106-.047-.155-.017-.05-.05-.17-.076-.254l-.052-.164c-.023-.073-.047-.146-.073-.219-.044-.131-.09-.26-.137-.391-.047-.131-.097-.26-.146-.388-.1-.263-.208-.523-.316-.783-.423-1.01-.899-2.006-1.337-2.992-.235-.518-.444-1.047-.625-1.586l-.055.079c-.089.134-.168.275-.237.42 0 2.298-2.3 5.11-2.3 5.11l-2.316-3.372-2.026 3.115c-.292.155-.584.686-.812 1.442-.064.205-.125.427-.184.663-.04.158-.078.324-.113.49-.02.085-.038.17-.056.258l-.052.265v.041c-.036.181-.07.368-.103.558-.032.19-.07.409-.102.616-.023.134-.044.268-.061.403-.041.26-.076.522-.111.782-.02.152-.041.292-.059.453l-.07.584c.15.479.316.952.488 1.416.11.254.174.526.19.803 3.583 1.024 7.38 1.024 10.963 0v-.03c-.054-.262-.077-.53-.07-.797.06-.749.157-1.494.292-2.233.043-.364.062-.731.056-1.098v-.131c-.01-.111-.012-.216-.015-.322zm0 0c0-.116 0-.233-.02-.35-.02-.117-.018-.219-.032-.33-.015-.11-.027-.222-.041-.333-.015-.11-.035-.222-.056-.333-.02-.11-.04-.221-.064-.332 0-.038-.015-.073-.023-.111-.033-.146-.068-.292-.106-.441-.037-.15-.06-.237-.096-.353 0-.053-.03-.106-.047-.155-.017-.05-.05-.17-.076-.254l-.052-.164c-.023-.073-.047-.146-.073-.219-.044-.131-.09-.26-.137-.391-.047-.131-.097-.26-.146-.388-.1-.263-.208-.523-.316-.783-.423-1.01-.899-2.006-1.337-2.992-.235-.518-.444-1.047-.625-1.586l-.055.079c-.089.134-.168.275-.237.42 0 2.298-2.3 5.11-2.3 5.11l-2.316-3.372-2.026 3.115c-.292.155-.584.686-.812 1.442-.064.205-.125.427-.184.663-.04.158-.078.324-.113.49-.02.085-.038.17-.056.258l-.052.265v.041c-.036.181-.07.368-.103.558-.032.19-.07.409-.102.616-.023.134-.044.268-.061.403-.041.26-.076.522-.111.782-.02.152-.041.292-.059.453l-.07.584c.15.479.316.952.488 1.416.11.254.174.526.19.803 3.583 1.024 7.38 1.024 10.963 0v-.03c-.054-.262-.077-.53-.07-.797.06-.749.157-1.494.292-2.233.043-.364.062-.731.056-1.098v-.131c-.01-.111-.012-.216-.015-.322zm0 0c0-.116 0-.233-.02-.35-.02-.117-.018-.219-.032-.33-.015-.11-.027-.222-.041-.333-.015-.11-.035-.222-.056-.333-.02-.11-.04-.221-.064-.332 0-.038-.015-.073-.023-.111-.033-.146-.068-.292-.106-.441-.037-.15-.06-.237-.096-.353 0-.053-.03-.106-.047-.155-.017-.05-.05-.17-.076-.254l-.052-.164c-.023-.073-.047-.146-.073-.219-.044-.131-.09-.26-.137-.391-.047-.131-.097-.26-.146-.388-.1-.263-.208-.523-.316-.783-.423-1.01-.899-2.006-1.337-2.992-.235-.518-.444-1.047-.625-1.586l-.055.079c-.089.134-.168.275-.237.42 0 2.298-2.3 5.11-2.3 5.11l-2.316-3.372-2.026 3.115c-.292.155-.584.686-.812 1.442-.064.205-.125.427-.184.663-.04.158-.078.324-.113.49-.02.085-.038.17-.056.258l-.052.265v.041c-.036.181-.07.368-.103.558-.032.19-.07.409-.102.616-.023.134-.044.268-.061.403-.041.26-.076.522-.111.782-.02.152-.041.292-.059.453l-.07.584c.15.479.316.952.488 1.416.11.254.174.526.19.803 3.583 1.024 7.38 1.024 10.963 0v-.03c-.054-.262-.077-.53-.07-.797.06-.749.157-1.494.292-2.233.043-.364.062-.731.056-1.098v-.131c-.01-.111-.012-.216-.015-.322zm0 0c0-.116 0-.233-.02-.35-.02-.117-.018-.219-.032-.33-.015-.11-.027-.222-.041-.333-.015-.11-.035-.222-.056-.333-.02-.11-.04-.221-.064-.332 0-.038-.015-.073-.023-.111-.033-.146-.068-.292-.106-.441-.037-.15-.06-.237-.096-.353 0-.053-.03-.106-.047-.155-.017-.05-.05-.17-.076-.254l-.052-.164c-.023-.073-.047-.146-.073-.219-.044-.131-.09-.26-.137-.391-.047-.131-.097-.26-.146-.388-.1-.263-.208-.523-.316-.783-.423-1.01-.899-2.006-1.337-2.992-.235-.518-.444-1.047-.625-1.586l-.055.079c-.089.134-.168.275-.237.42 0 2.298-2.3 5.11-2.3 5.11l-2.316-3.372-2.026 3.115c-.292.155-.584.686-.812 1.442-.064.205-.125.427-.184.663-.04.158-.078.324-.113.49-.02.085-.038.17-.056.258l-.052.265v.041c-.036.181-.07.368-.103.558-.032.19-.07.409-.102.616-.023.134-.044.268-.061.403-.041.26-.076.522-.111.782-.02.152-.041.292-.059.453l-.07.584c.15.479.316.952.488 1.416.11.254.174.526.19.803 3.583 1.024 7.38 1.024 10.963 0v-.03c-.054-.262-.077-.53-.07-.797.06-.749.157-1.494.292-2.233.043-.364.062-.731.056-1.098v-.131c-.01-.111-.012-.216-.015-.322zm0 0c0-.116 0-.233-.02-.35-.02-.117-.018-.219-.032-.33-.015-.11-.027-.222-.041-.333-.015-.11-.035-.222-.056-.333-.02-.11-.04-.221-.064-.332 0-.038-.015-.073-.023-.111-.033-.146-.068-.292-.106-.441-.037-.15-.06-.237-.096-.353 0-.053-.03-.106-.047-.155-.017-.05-.05-.17-.076-.254l-.052-.164c-.023-.073-.047-.146-.073-.219-.044-.131-.09-.26-.137-.391-.047-.131-.097-.26-.146-.388-.1-.263-.208-.523-.316-.783-.423-1.01-.899-2.006-1.337-2.992-.235-.518-.444-1.047-.625-1.586l-.055.079c-.089.134-.168.275-.237.42 0 2.298-2.3 5.11-2.3 5.11l-2.316-3.372-2.026 3.115c-.292.155-.584.686-.812 1.442-.064.205-.125.427-.184.663-.04.158-.078.324-.113.49-.02.085-.038.17-.056.258l-.052.265v.041c-.036.181-.07.368-.103.558-.032.19-.07.409-.102.616-.023.134-.044.268-.061.403-.041.26-.076.522-.111.782-.02.152-.041.292-.059.453l-.07.584c.15.479.316.952.488 1.416.11.254.174.526.19.803 3.583 1.024 7.38 1.024 10.963 0v-.03c-.054-.262-.077-.53-.07-.797.06-.749.157-1.494.292-2.233.043-.364.062-.731.056-1.098v-.131c-.01-.111-.012-.216-.015-.322zm0 0c0-.116 0-.233-.02-.35-.02-.117-.018-.219-.032-.33-.015-.11-.027-.222-.041-.333-.015-.11-.035-.222-.056-.333-.02-.11-.04-.221-.064-.332 0-.038-.015-.073-.023-.111-.033-.146-.068-.292-.106-.441-.037-.15-.06-.237-.096-.353 0-.053-.03-.106-.047-.155-.017-.05-.05-.17-.076-.254l-.052-.164c-.023-.073-.047-.146-.073-.219-.044-.131-.09-.26-.137-.391-.047-.131-.097-.26-.146-.388-.1-.263-.208-.523-.316-.783-.423-1.01-.899-2.006-1.337-2.992-.235-.518-.444-1.047-.625-1.586l-.055.079c-.089.134-.168.275-.237.42 0 2.298-2.3 5.11-2.3 5.11l-2.316-3.372-2.026 3.115c-.292.155-.584.686-.812 1.442-.064.205-.125.427-.184.663-.04.158-.078.324-.113.49-.02.085-.038.17-.056.258l-.052.265v.041c-.036.181-.07.368-.103.558-.032.19-.07.409-.102.616-.023.134-.044.268-.061.403-.041.26-.076.522-.111.782-.02.152-.041.292-.059.453l-.07.584c.15.479.316.952.488 1.416.11.254.174.526.19.803 3.583 1.024 7.38 1.024 10.963 0v-.03c-.054-.262-.077-.53-.07-.797.06-.749.157-1.494.292-2.233.043-.364.062-.731.056-1.098v-.131c-.01-.111-.012-.216-.015-.322zm0 0c0-.116 0-.233-.02-.35-.02-.117-.018-.219-.032-.33-.015-.11-.027-.222-.041-.333-.015-.11-.035-.222-.056-.333-.02-.11-.04-.221-.064-.332 0-.038-.015-.073-.023-.111-.033-.146-.068-.292-.106-.441-.037-.15-.06-.237-.096-.353 0-.053-.03-.106-.047-.155-.017-.05-.05-.17-.076-.254l-.052-.164c-.023-.073-.047-.146-.073-.219-.044-.131-.09-.26-.137-.391-.047-.131-.097-.26-.146-.388-.1-.263-.208-.523-.316-.783-.423-1.01-.899-2.006-1.337-2.992-.235-.518-.444-1.047-.625-1.586l-.055.079c-.089.134-.168.275-.237.42 0 2.298-2.3 5.11-2.3 5.11l-2.316-3.372-2.026 3.115c-.292.155-.584.686-.812 1.442-.064.205-.125.427-.184.663-.04.158-.078.324-.113.49-.02.085-.038.17-.056.258l-.052.265v.041c-.036.181-.07.368-.103.558-.032.19-.07.409-.102.616-.023.134-.044.268-.061.403-.041.26-.076.522-.111.782-.02.152-.041.292-.059.453l-.07.584c.15.479.316.952.488 1.416.11.254.174.526.19.803 3.583 1.024 7.38 1.024 10.963 0v-.03c-.054-.262-.077-.53-.07-.797.06-.749.157-1.494.292-2.233.043-.364.062-.731.056-1.098v-.131c-.01-.111-.012-.216-.015-.322z"/>
            <path fill="#000" d="M17.556 27.127l-.195-.026c-.296-.04-.588-.099-.876-.175l-.108-.03c-.713-.201-1.492-.563-1.668-1.2-.052-.205-.046-.42.018-.622.098-.347.231-.683.397-1.004v-.017c.022-.046.046-.09.073-.132.241-.47.605-.867 1.054-1.147l-.35.055-2.967.482-4.598.742s-.818-.164-1.93 2.902c0 .038-.026.073-.038.114-.269.75-.552 1.687-.844 2.858-.201.812-.385 1.609-.555 2.382l-.146.692c.527.621 1.093 1.206 1.697 1.752l.096.09c1.182 1.07 2.487 1.995 3.89 2.754l.055.03c.881.475 1.8.881 2.744 1.214l.248.087c.053-.54.111-1.138.181-1.751 0-.062 0-.123.024-.184l.07-.584c.017-.15.038-.292.058-.453.035-.26.07-.522.111-.782.018-.135.038-.269.061-.403.033-.207.068-.415.103-.616.035-.202.067-.377.102-.558v-.04l.052-.266c.018-.088.035-.173.056-.257.035-.167.073-.333.114-.49.058-.237.12-.46.184-.664.233-.756.505-1.287.811-1.442l2.027-3.115.084-.132.038-.058-.073-.006z" opacity=".1"/>
            <path fill="#F1D2D7" d="M17.384 27.133l-2.152 3.305c-.292.149-.566.666-.797 1.398-.067.217-.134.453-.199.701-.29 1.261-.51 2.537-.66 3.822 0 .059 0 .117-.023.175-.099.812-.18 1.61-.248 2.313-.945-.333-1.863-.74-2.744-1.215l-.056-.03c-1.402-.758-2.707-1.682-3.889-2.752l-.096-.09c-.604-.547-1.17-1.132-1.697-1.753-.07-.079-.137-.16-.204-.242.032-.152.064-.292.1-.456.166-.773.35-1.567.551-2.376.266-1.109.597-2.2.993-3.27.01-.032.023-.063.038-.094 1.033-2.66 1.778-2.51 1.778-2.51l4.855-.783L16 22.78l-.096.055c-.339.24-.626.546-.844.9l-.085.142c-.035.056-.067.117-.102.178-.17.326-.305.668-.403 1.022-.09.277-.065.578.07.835.292.567 1.121.876 1.802 1.046l.113.029c.307.068.617.117.929.146z"/>
            <path fill="#000" d="M34.257 33.034l-.12-2.593c.511-4.088-.51-4.342-.51-4.342l-1.215-.584h-.032l-4.885-2.368-.19-.093-.058-.026-.637-.31-.403-.195-.753-.365-.254-.123v1.013c0 .292.026.634.05 1.03.052 1 .149 2.337.32 3.913.097.914.22 1.913.372 2.984.09.634.154 1.264.195 1.88.131 2.075.067 4.157-.192 6.22l.265-.085c.72-.241 1.427-.524 2.114-.847 1.34-.625 2.603-1.4 3.767-2.312l.052-.038c.753-.589 1.461-1.232 2.12-1.924l-.006-.835z" opacity=".1"/>
            <path fill="#F1D2D7" d="M34.514 33.034l-.12-2.599c.511-4.088-.51-4.342-.51-4.342l-1.46-.706h-.03l-4.9-2.377-.224-.108-.044-.02-.359-.175-.476-.231-.94-.456v.929c0 .292.026.674.053 1.11.05.93.137 2.151.292 3.602.105.996.236 2.103.408 3.294.09.636.154 1.266.193 1.889.13 2.045.07 4.097-.18 6.131.72-.24 1.425-.523 2.113-.847 1.34-.624 2.603-1.4 3.766-2.312l.053-.038c.753-.588 1.461-1.232 2.12-1.924.085-.086.167-.173.245-.263v-.557z"/>
            <path fill="#000" d="M18.044 11.582c.91-.154 1.828-.487 2.733-.291.759.157 1.392.662 2.087 1.013.671.337 1.405.531 2.155.569.274.036.551-.018.791-.155.362-.25.415-.765.354-1.203-.176-1.243-.952-2.312-1.752-3.281-.32-.415-.688-.788-1.098-1.113-1.048-.774-2.435-.905-3.734-.847-1.484.068-2.99.354-4.278 1.098-.876.502-2.884 2.085-2.187 3.23.733 1.197 3.781 1.176 4.929.98z" opacity=".1"/>
            <path fill="#444176" d="M18.044 11.29c.91-.154 1.828-.487 2.733-.291.759.157 1.392.662 2.087 1.013.671.337 1.405.531 2.155.569.274.036.551-.018.791-.155.362-.25.415-.765.354-1.203-.176-1.243-.952-2.312-1.752-3.281-.32-.414-.688-.788-1.098-1.113-1.048-.774-2.435-.905-3.734-.847-1.484.068-2.99.354-4.278 1.098-.876.502-2.884 2.085-2.187 3.23.733 1.197 3.781 1.176 4.929.98z"/>
        </g>
        <path fill="#000" fill-rule="nonzero" d="M175 158.648l3.216 10.291.077.202c.431.098 9.543 2.21 11.51 2.859H190l-5.09-13.608-.146-.392-1.655.107-8.109.541z" opacity=".02"/>
        <path fill="#E82127" fill-rule="nonzero" d="M194.944 150.047c-.06.27-.24.481-.47.55h-.731l-.037.016v2.187h-.45v-2.187l-.042-.016h-.731c-.229-.07-.408-.28-.47-.55h2.93"/>
        <path fill="#000" fill-rule="nonzero" d="M206 144.8s-7.055.4-9-.8c2.562 1.607 5.587 2.641 8.78 3l.22-2.2z" opacity=".1"/>
        <path fill="url(#prefix__d)" fill-rule="nonzero" d="M206.563 142.774l-79.055-63.42c-.93-.925-2.19-1.444-3.504-1.442h-3.359c13.934-17.775 11.569-43.275-5.399-58.21C98.28 4.769 72.568 5.554 56.553 21.497s-16.805 41.539-1.802 58.43c15.002 16.89 40.617 19.245 58.472 5.375v3.34c-.002 1.309.52 2.564 1.448 3.489l79.055 63.42c.924.928 2.182 1.45 3.495 1.45 1.313 0 2.57-.522 3.495-1.45l5.827-5.794c1.935-1.925 1.944-5.046.02-6.982zM86.83 77.912c-14.576 0-26.392-11.763-26.392-26.273s11.816-26.274 26.392-26.274c14.576 0 26.392 11.763 26.392 26.274.006 6.97-2.773 13.656-7.723 18.586-4.95 4.929-11.667 7.697-18.669 7.693v-.006z"/>
        <path fill="#0057AD" fill-rule="nonzero" d="M206.563 142.774l-79.055-63.42c-.93-.925-2.19-1.444-3.504-1.442h-3.359c13.934-17.775 11.569-43.275-5.399-58.21C98.28 4.769 72.568 5.554 56.553 21.497s-16.805 41.539-1.802 58.43c15.002 16.89 40.617 19.245 58.472 5.375v3.34c-.002 1.309.52 2.564 1.448 3.489l79.055 63.42c.924.928 2.182 1.45 3.495 1.45 1.313 0 2.57-.522 3.495-1.45l5.827-5.794c1.935-1.925 1.944-5.046.02-6.982zM86.83 77.912c-14.576 0-26.392-11.763-26.392-26.273s11.816-26.274 26.392-26.274c14.576 0 26.392 11.763 26.392 26.274.006 6.97-2.773 13.656-7.723 18.586-4.95 4.929-11.667 7.697-18.669 7.693v-.006z"/>
        <path fill="#C0BCCF" fill-rule="nonzero" d="M69 51.5c-.007 4.22 1.36 8.326 3.894 11.698.256.341.522.671.8.995.15.175.304.347.462.517.078.088.159.174.24.258.648.68 1.343 1.312 2.083 1.89l.051.037c1.143.896 2.384 1.658 3.7 2.272.675.317 1.368.595 2.076.832l.26.083c.161.055.328.103.491.15l.066.02c.083.022.166.048.253.068 1.666.453 3.386.682 5.113.68.286 0 .587 0 .88-.02 1.531-.066 3.05-.315 4.522-.74h.029c.272-.08.542-.164.809-.255h.028l.244-.086c.928-.327 1.83-.726 2.696-1.194l.054-.028.287-.158c1.271-.714 2.458-1.568 3.538-2.547l.095-.09c.593-.536 1.15-1.11 1.666-1.72l.06-.072c.05-.054.095-.109.14-.166.127-.15.248-.304.368-.46 5.226-6.734 5.473-16.083.61-23.085-4.862-7.002-13.707-10.034-21.841-7.487C74.54 35.44 69.002 42.976 69 51.501z"/>
        <path fill="url(#prefix__e)" fill-rule="nonzero" d="M74.883 57.653s4.3-.362 6.27-3.082c1.92-2.647 3.227-2.679 3.29-2.679.05-.354.085-.69.109-1.003v-.044c-.079.063-.172.103-.272.12-.384.057-.722-.305-.915-.69-.148-.403-.343-.787-.583-1.143-.475-.545-1.253-.548-1.819-.963-.497-.418-.811-1.013-.874-1.658-.031-.24-.043-.483-.035-.725-.01-.518.031-1.036.122-1.546.152-.96.376-1.942.916-2.7.539-.756 1.594-.918 2.119-1.634 2.457-3.352 4.209-2.288 6.322-3.413.41-.258.872-.425 1.353-.49.848-.05 1.606.554 2.288 1.128.436.336.828.726 1.166 1.16.609.85.95 2.273.92 3.52.017.462-.028.926-.133 1.377-.17.667-.627.623-1.128.472 1.28 2.681.406 5.89-2.058 7.562v.305c-.002.022-.002.044 0 .066-.008.463.007.925.046 1.386.05.026 4.763 2.685 5.297 3.947.533 1.26 2.51 2.174 2.51 2.174s2.171 1.16 3.206 4.802l-.061.072c-.525.628-1.09 1.22-1.694 1.775l-.096.092c-1.096 1.002-2.303 1.878-3.597 2.61-.093.055-.19.11-.291.162l-.056.03c-.88.48-1.795.89-2.74 1.226l-.248.09h-.029c-.27.095-.545.18-.822.26h-.029c-1.496.438-3.04.693-4.597.76-.291.015-.583.021-.895.021-1.75.01-3.493-.216-5.182-.67-.088-.02-.172-.046-.257-.07l-.067-.02c-.166-.046-.335-.099-.498-.154l-.266-.084c-.722-.244-1.43-.53-2.119-.858-1.339-.632-2.6-1.415-3.76-2.334l-.052-.038c-.753-.595-1.46-1.244-2.117-1.942-.083-.085-.165-.174-.244-.267-.16-.174-.318-.351-.47-.53-.291-.334-.554-.673-.813-1.024 1.56-5.953 2.883-5.356 2.883-5.356z"/>
        <path fill="#FDC2CC" fill-rule="nonzero" d="M90.557 62L97 57.164s-4.316.9-4.194-5.813v-.067c0-.607.06-1.271.15-2.003 1.106-8.959-7.73-1.076-7.73-1.076.075.793.075 1.592 0 2.385v.064c-.176 2.208-.8 4.36-1.84 6.329-2.4 4.478 7.17 5.017 7.17 5.017z"/>
        <path fill="#000" fill-rule="nonzero" d="M85.848 49.19c1.118.997 1.8 2.81 3.481 2.81 1.216.002 2.406-.325 3.42-.942 0-.584.061-1.225.153-1.93C94.032 40.49 85 48.09 85 48.09s.967-.306.848 1.1z" opacity=".1"/>
        <circle cx="89" cy="46" r="6" fill="#FDC2CC" fill-rule="nonzero"/>
        <path fill="#000" fill-rule="nonzero" d="M95.092 39.18c-.334-.413-.72-.784-1.15-1.102-.673-.549-1.42-1.126-2.257-1.075-.473.062-.928.22-1.333.467-2.085 1.075-3.812.06-6.236 3.255-.517.683-1.555.843-2.09 1.56-.534.718-.75 1.66-.902 2.577-.126.62-.156 1.256-.09 1.885.065.617.374 1.185.863 1.58.558.397 1.325.4 1.794.92.235.34.429.705.575 1.09.19.365.523.711.902.658.38-.054.607-.456.662-.844.023-.402 0-.805-.072-1.201-.072-.712.02-1.488.448-2.026.288-.368.719-.588 1.004-.962.684-.903.373-2.419 1.124-3.257.446-.449 1.105-.628 1.724-.47.605.169 1.184.413 1.725.726.755.373 1.545.671 2.36.892.684.182 1.478.621 1.71-.282.366-1.327.024-3.33-.761-4.39z" opacity=".1"/>
        <path fill="#865A61" fill-rule="nonzero" d="M95.092 39.18c-.334-.413-.72-.784-1.15-1.102-.673-.549-1.42-1.126-2.257-1.075-.473.062-.928.22-1.333.467-2.085 1.075-3.812.06-6.236 3.255-.517.683-1.555.843-2.09 1.56-.534.718-.75 1.66-.902 2.577-.126.62-.156 1.256-.09 1.885.065.617.374 1.185.863 1.58.558.397 1.325.4 1.794.92.235.34.429.705.575 1.09.19.365.523.711.902.658.38-.054.607-.456.662-.844.023-.402 0-.805-.072-1.201-.072-.712.02-1.488.448-2.026.288-.368.719-.588 1.004-.962.684-.903.373-2.419 1.124-3.257.446-.449 1.105-.628 1.724-.47.605.169 1.184.413 1.725.726.755.373 1.545.671 2.36.892.684.182 1.478.621 1.71-.282.366-1.327.024-3.33-.761-4.39z"/>
        <path fill="#000" fill-rule="nonzero" d="M82.636 65.03l-.119 4.305c1.729.443 3.512.667 5.304.665.297 0 .61 0 .913-.02 1.589-.064 3.163-.307 4.691-.723h.03c.282-.079.562-.16.839-.25h.03l.252-.084c.963-.32 1.898-.71 2.796-1.167l.057-.028.297-.154-.46-5.804.734-3.98-4.022-2.584c-.225.308-.478.597-.755.864-.397.391-.862.716-1.375.96-2.885 1.34-6.169-.792-7.802-2.11l-.372-.311c-.422-.362-.663-.609-.663-.609L81 56.928l1.636 8.101z" opacity=".1"/>
        <path fill="#53526B" fill-rule="nonzero" d="M82.636 65.03l-.119 4.305c1.729.443 3.512.667 5.304.665.297 0 .61 0 .913-.02 1.589-.064 3.163-.307 4.691-.723h.03c.282-.079.562-.16.839-.25h.03l.252-.084c.963-.32 1.898-.71 2.796-1.167l.057-.028.297-.154-.46-5.804.734-3.98-4.022-2.584c-.225.308-.478.597-.755.864-.397.391-.862.716-1.375.96-2.885 1.34-6.169-.792-7.802-2.11l-.372-.311c-.422-.362-.663-.609-.663-.609L81 56.928l1.636 8.101z"/>
        <path fill="#555388" fill-rule="nonzero" d="M72 63.038c.26.349.533.685.816 1.016.153.178.31.354.472.527.08.09.162.177.245.263.66.694 1.37 1.34 2.125 1.93l.053.037c1.166.914 2.432 1.692 3.775 2.319.69.323 1.397.607 2.119.848l.266.085c.164.056.334.106.5.153l.068.02c.085.023.17.05.257.07 1.701.463 3.456.696 5.218.694.293 0 .6 0 .899-.02.228-3.736.292-6.733-.065-7.503-.214-.445-.455-.877-.723-1.294-1.445-2.324-4.097-5.819-3.953-6.26.056-.217.096-.437.12-.66.155-1.153.31-3.263.31-3.263-.064 0-1.375.032-3.304 2.66-1.978 2.7-6.295 3.06-6.295 3.06s-1.32-.586-2.903 5.318zM94.418 66.185s.222 1.738.513 3.815h.03l.255-.089c.971-.336 1.914-.746 2.82-1.227l.057-.03.3-.162c1.33-.734 2.572-1.613 3.702-2.62l.099-.092c.62-.552 1.202-1.143 1.743-1.77l.063-.074c-1.071-3.656-3.3-4.807-3.3-4.807s-2.028-.909-2.583-2.178C97.562 55.682 92.663 53 92.663 53v.02c0 .228-.078 2.308-.195 4.4-.075 1.36-.168 2.727-.276 3.595-.023.281-.076.56-.156.832-.38.894 2.382 4.338 2.382 4.338z"/>
    </g>
</svg>
