<svg width="143" height="40" viewBox="0 0 143 40" fill="none" xmlns="http://www.w3.org/2000/svg">
<path d="M23.6661 0C22.8915 1.81994 21.9232 3.485 20.9937 5.18877C20.5289 6.04066 20.0254 6.85382 19.5219 7.66699L18.7473 8.9061C18.4762 9.29332 18.2438 9.71926 18.0501 10.1065C16.4234 13.1268 15.5713 16.5344 15.6101 19.9032C15.6488 23.272 16.5783 26.6409 18.3212 29.6612C20.2578 32.9526 22.1169 36.3601 23.6274 40C20.6064 37.4443 17.9727 34.6563 15.4551 31.7135C12.7439 28.4995 11.156 24.2401 11.1172 19.9806C11.0398 15.6825 12.4728 11.423 15.1453 8.09293C15.4551 7.62827 15.8037 7.31849 16.1523 6.96999L17.1593 5.92449C17.8565 5.22749 18.5149 4.56922 19.2508 3.87222C20.6838 2.51694 22.0782 1.20039 23.6661 0Z" fill="#E7B224"/>
<path d="M9.25775 6.27344C8.8317 7.62871 8.25074 8.8291 7.7085 10.0295C7.39865 10.649 7.12753 11.2299 6.77895 11.8107L6.31418 12.6626C6.15925 12.9337 5.9656 13.2434 5.88814 13.4758C4.91986 15.528 4.45508 17.6965 4.49381 19.8649C4.53255 22.0334 5.03605 24.2018 6.12052 26.2541C7.35992 28.5774 8.52185 30.9782 9.29648 33.6887C6.97261 32.1011 5.07478 30.2812 3.21569 28.3064C1.20167 26.0605 0.00100286 23.0014 0.00100286 19.9424C-0.0377283 16.8446 1.04674 13.7855 3.02203 11.4622C3.25442 11.1524 3.52554 10.9201 3.75792 10.6878L4.49381 9.99077C4.99732 9.5261 5.50082 9.10016 6.00433 8.67421C7.01134 7.86105 8.05708 7.00916 9.25775 6.27344Z" fill="#E7B224"/>
<path d="M32.1484 27.3792H33.7364V20.0608H39.5848V18.6668H33.7364V13.478H40.282V12.084H32.1484V27.3792Z" fill="#F6F6F6"/>
<path d="M47.0973 12.084H45.5093V27.3792H47.0973V12.084Z" fill="#F6F6F6"/>
<path d="M65.6507 24.7074C64.8373 23.7394 64.024 22.81 63.2493 21.8807C62.3198 20.7965 61.3902 19.751 60.422 18.6668C59.4537 17.6213 58.5241 16.537 57.5946 15.4528C56.665 14.3686 55.7355 13.2844 54.8059 12.1614L54.7285 12.084H53.4116V27.3792H54.9996V14.7558L65.9605 27.3405H67.2774V12.084H65.6507V24.7074Z" fill="#F6F6F6"/>
<path d="M75.1388 12.084H73.5508V27.3792H82.4977V25.9465H75.1388V12.084Z" fill="#F6F6F6"/>
<path d="M89.044 12.084H87.4561V27.3792H89.044V12.084Z" fill="#F6F6F6"/>
<path d="M103.219 21.5689H106.356V25.2088C106.008 25.4024 105.504 25.596 104.884 25.7509C104.226 25.9445 103.451 26.0219 102.638 26.0219C100.624 26.0219 98.9586 25.4411 97.7192 24.2794C96.4798 23.1565 95.8601 21.6076 95.8601 19.6715C95.8601 17.8515 96.4798 16.3414 97.6805 15.141C98.9199 13.9406 100.43 13.3598 102.251 13.3598C103.142 13.3598 104.032 13.5147 104.884 13.747C105.737 13.9793 106.55 14.3278 107.325 14.8312L107.673 15.0248V13.2049L107.557 13.1274C107.131 12.8951 106.434 12.6241 105.427 12.3143C104.458 12.0045 103.374 11.8496 102.212 11.8496C99.9269 11.8496 97.9516 12.5853 96.4411 14.0955C94.8918 15.5669 94.1172 17.4256 94.1172 19.6715C94.1172 21.9174 94.9305 23.8148 96.4798 25.3249C98.029 26.7964 100.004 27.5708 102.406 27.5708C103.374 27.5708 104.381 27.4546 105.349 27.1836C106.24 26.9513 107.053 26.6415 107.751 26.293L107.867 26.2155V20.1749H103.219V21.5689Z" fill="#F6F6F6"/>
<path d="M124.406 18.9378H114.956V12.084H113.368V27.3792H114.956V20.3318H124.406V27.3792H125.994V12.084H124.406V18.9378Z" fill="#F6F6F6"/>
<path d="M129.945 12.084V13.478H135.522V27.3792H137.149V13.478H142.726V12.084H129.945Z" fill="#F6F6F6"/>
</svg>
