<svg width="143" height="40" viewBox="0 0 143 40" fill="none" xmlns="http://www.w3.org/2000/svg">
<path d="M23.666 0C22.8914 1.81994 21.9231 3.485 20.9936 5.18877C20.5288 6.04066 20.0253 6.85382 19.5218 7.66699L18.7472 8.9061C18.476 9.29332 18.2436 9.71926 18.05 10.1065C16.4233 13.1268 15.5712 16.5344 15.6099 19.9032C15.6487 23.272 16.5782 26.6409 18.3211 29.6612C20.2577 32.9526 22.1168 36.3601 23.6273 40C20.6062 37.4443 17.9725 34.6563 15.455 31.7135C12.7438 28.4995 11.1559 24.2401 11.1171 19.9806C11.0397 15.6825 12.4727 11.423 15.1452 8.09293C15.455 7.62827 15.8036 7.31849 16.1522 6.96999L17.1592 5.92449C17.8563 5.22749 18.5148 4.56922 19.2507 3.87222C20.6837 2.51694 22.078 1.20039 23.666 0Z" fill="#E7B224"/>
<path d="M9.25775 6.27271C8.8317 7.62798 8.25074 8.82837 7.7085 10.0288C7.39865 10.6483 7.12753 11.2291 6.77895 11.81L6.31418 12.6619C6.15925 12.9329 5.9656 13.2427 5.88814 13.475C4.91986 15.5273 4.45508 17.6957 4.49381 19.8642C4.53255 22.0326 5.03605 24.2011 6.12052 26.2533C7.35992 28.5767 8.52185 30.9775 9.29648 33.688C6.97261 32.1004 5.07478 30.2805 3.21569 28.3056C1.20167 26.0597 0.00100286 23.0007 0.00100286 19.9416C-0.0377283 16.8439 1.04674 13.7848 3.02203 11.4615C3.25442 11.1517 3.52554 10.9194 3.75792 10.687L4.49381 9.99003C4.99732 9.52537 5.50082 9.09942 6.00433 8.67348C7.01134 7.86031 8.05708 7.00843 9.25775 6.27271Z" fill="#E7B224"/>
<path d="M32.1484 27.3785H33.7364V20.06H39.5848V18.666H33.7364V13.4772H40.282V12.0833H32.1484V27.3785Z" fill="#F6F6F6"/>
<path d="M47.0974 12.0833H45.5094V27.3785H47.0974V12.0833Z" fill="#F6F6F6"/>
<path d="M65.6505 24.7067C64.8372 23.7386 64.0238 22.8093 63.2492 21.88C62.3197 20.7957 61.3901 19.7502 60.4218 18.666C59.4536 17.6205 58.524 16.5363 57.5945 15.4521C56.6649 14.3679 55.7354 13.2836 54.8058 12.1607L54.7284 12.0833H53.4115V27.3785H54.9995V14.7551L65.9604 27.3398H67.2772V12.0833H65.6505V24.7067Z" fill="#F6F6F6"/>
<path d="M75.1386 12.0833H73.5507V27.3785H82.4976V25.9458H75.1386V12.0833Z" fill="#F6F6F6"/>
<path d="M89.044 12.0833H87.4561V27.3785H89.044V12.0833Z" fill="#F6F6F6"/>
<path d="M103.219 21.5681H106.356V25.208C106.008 25.4016 105.504 25.5952 104.884 25.7501C104.226 25.9437 103.451 26.0212 102.638 26.0212C100.624 26.0212 98.9585 25.4404 97.7191 24.2787C96.4797 23.1558 95.86 21.6069 95.86 19.6708C95.86 17.8508 96.4797 16.3406 97.6803 15.1403C98.9197 13.9399 100.43 13.359 102.251 13.359C103.141 13.359 104.032 13.5139 104.884 13.7463C105.736 13.9786 106.55 14.3271 107.324 14.8305L107.673 15.0241V13.2042L107.557 13.1267C107.131 12.8944 106.434 12.6233 105.427 12.3135C104.458 12.0038 103.374 11.8489 102.212 11.8489C99.9267 11.8489 97.9514 12.5846 96.4409 14.0948C94.8917 15.5662 94.1171 17.4249 94.1171 19.6708C94.1171 21.9166 94.9304 23.814 96.4797 25.3242C98.0289 26.7956 100.004 27.5701 102.406 27.5701C103.374 27.5701 104.381 27.4539 105.349 27.1829C106.24 26.9505 107.053 26.6407 107.75 26.2922L107.867 26.2148V20.1741H103.219V21.5681Z" fill="#F6F6F6"/>
<path d="M124.406 18.9371H114.956V12.0833H113.368V27.3785H114.956V20.3311H124.406V27.3785H125.994V12.0833H124.406V18.9371Z" fill="#F6F6F6"/>
<path d="M129.945 12.0833V13.4772H135.522V27.3785H137.149V13.4772H142.726V12.0833H129.945Z" fill="#F6F6F6"/>
</svg>
