<svg width="24" height="40" viewBox="0 0 24 40" fill="none" xmlns="http://www.w3.org/2000/svg">
<path d="M23.666 0C22.8914 1.81994 21.9231 3.485 20.9936 5.18877C20.5288 6.04066 20.0253 6.85382 19.5218 7.66699L18.7472 8.9061C18.476 9.29332 18.2436 9.71926 18.05 10.1065C16.4233 13.1268 15.5712 16.5344 15.6099 19.9032C15.6487 23.272 16.5782 26.6409 18.3211 29.6612C20.2577 32.9526 22.1168 36.3601 23.6273 40C20.6062 37.4443 17.9725 34.6563 15.455 31.7135C12.7438 28.4995 11.1559 24.2401 11.1171 19.9806C11.0397 15.6825 12.4727 11.423 15.1452 8.09293C15.455 7.62827 15.8036 7.31849 16.1522 6.96999L17.1592 5.92449C17.8563 5.22749 18.5148 4.56922 19.2507 3.87222C20.6837 2.51694 22.078 1.20039 23.666 0Z" fill="#E7B224"/>
<path d="M9.25775 6.27271C8.8317 7.62798 8.25074 8.82837 7.7085 10.0288C7.39865 10.6483 7.12753 11.2291 6.77895 11.81L6.31418 12.6619C6.15925 12.9329 5.9656 13.2427 5.88814 13.475C4.91986 15.5273 4.45508 17.6957 4.49381 19.8642C4.53255 22.0326 5.03605 24.2011 6.12052 26.2533C7.35992 28.5767 8.52185 30.9775 9.29648 33.688C6.97261 32.1004 5.07478 30.2805 3.21569 28.3056C1.20167 26.0597 0.00100286 23.0007 0.00100286 19.9416C-0.0377283 16.8439 1.04674 13.7848 3.02203 11.4615C3.25442 11.1517 3.52554 10.9194 3.75792 10.687L4.49381 9.99003C4.99732 9.52537 5.50082 9.09942 6.00433 8.67348C7.01134 7.86031 8.05708 7.00843 9.25775 6.27271Z" fill="#E7B224"/>
</svg>
