<svg width="498" height="348" viewBox="0 0 498 348" fill="none" xmlns="http://www.w3.org/2000/svg">
<path d="M497.232 318.273H0.285034V12.1183C0.288528 8.90542 1.49034 5.82516 3.62677 3.55332C5.7632 1.28148 8.65979 0.00358398 11.6811 0H485.835C488.857 0.00361521 491.753 1.28153 493.89 3.55336C496.026 5.82519 497.228 8.90543 497.232 12.1183V318.273Z" fill="#3F3D56"/>
<path d="M476.561 310.289H22.0983C19.6793 310.286 17.36 309.228 15.6495 307.345C13.9389 305.463 12.9767 302.91 12.974 300.248V26.0146C12.9767 23.3523 13.9389 20.7998 15.6494 18.9173C17.36 17.0347 19.6792 15.9757 22.0983 15.9727H476.561C478.98 15.9757 481.3 17.0347 483.01 18.9173C484.721 20.7998 485.683 23.3523 485.686 26.0146V300.248C485.683 302.91 484.721 305.463 483.01 307.345C481.299 309.228 478.98 310.286 476.561 310.289Z" fill="white"/>
<path d="M404.414 264.656H145.54C145.325 264.656 145.119 264.546 144.967 264.35C144.815 264.155 144.73 263.889 144.73 263.612V103.712C144.73 103.435 144.815 103.17 144.967 102.974C145.119 102.778 145.325 102.668 145.54 102.668C145.755 102.668 145.961 102.778 146.113 102.974C146.265 103.17 146.35 103.435 146.35 103.712V262.568H404.414C404.629 262.568 404.835 262.678 404.987 262.874C405.139 263.07 405.224 263.335 405.224 263.612C405.224 263.889 405.139 264.155 404.987 264.35C404.835 264.546 404.629 264.656 404.414 264.656Z" fill="#3F3D56"/>
<path d="M206.915 248.972H186.995C186.456 248.971 185.939 248.706 185.557 248.233C185.176 247.76 184.961 247.12 184.961 246.451V212.423C184.961 211.755 185.176 211.114 185.557 210.642C185.939 210.169 186.456 209.903 186.995 209.902H206.915C207.454 209.903 207.972 210.169 208.353 210.642C208.734 211.114 208.949 211.755 208.95 212.423V246.451C208.949 247.12 208.734 247.76 208.353 248.233C207.972 248.706 207.454 248.971 206.915 248.972Z" fill="#E7B224"/>
<path d="M240.105 251.587H220.185C219.646 251.586 219.129 251.321 218.748 250.848C218.366 250.375 218.152 249.734 218.151 249.066V182.763C218.152 182.095 218.366 181.454 218.748 180.981C219.129 180.509 219.646 180.243 220.185 180.242H240.105C240.645 180.243 241.162 180.509 241.543 180.981C241.925 181.454 242.139 182.095 242.14 182.763V249.066C242.139 249.734 241.925 250.375 241.543 250.848C241.162 251.321 240.645 251.586 240.105 251.587Z" fill="#E7B224"/>
<path d="M273.296 252.394H253.376C252.837 252.393 252.319 252.127 251.938 251.655C251.557 251.182 251.342 250.541 251.341 249.873V215.845C251.342 215.177 251.557 214.536 251.938 214.063C252.319 213.591 252.837 213.325 253.376 213.324H273.296C273.835 213.325 274.352 213.591 274.734 214.063C275.115 214.536 275.33 215.177 275.33 215.845V249.873C275.33 250.541 275.115 251.182 274.734 251.655C274.352 252.127 273.835 252.393 273.296 252.394Z" fill="#E7B224"/>
<path d="M314.532 251.777H294.612C294.085 251.791 293.575 251.546 293.194 251.095C292.813 250.643 292.591 250.023 292.578 249.37V170.099C292.591 169.446 292.813 168.826 293.194 168.374C293.575 167.923 294.085 167.678 294.612 167.692H314.532C315.059 167.678 315.57 167.923 315.951 168.374C316.332 168.826 316.554 169.446 316.567 170.099V249.37C316.554 250.023 316.332 250.643 315.951 251.095C315.57 251.546 315.059 251.791 314.532 251.777Z" fill="#E7B224"/>
<path d="M355.769 251.896H335.849C335.31 251.896 334.793 251.63 334.411 251.157C334.03 250.685 333.815 250.044 333.814 249.375V198.388V147.4C333.815 146.732 334.03 146.091 334.411 145.618C334.793 145.145 335.31 144.88 335.849 144.879H355.769C356.308 144.88 356.825 145.145 357.207 145.618C357.588 146.091 357.803 146.732 357.803 147.4V249.375C357.803 250.044 357.588 250.685 357.207 251.157C356.825 251.63 356.308 251.896 355.769 251.896Z" fill="#E7B224"/>
<path d="M193.096 193.856C195.367 193.856 197.208 191.575 197.208 188.76C197.208 185.946 195.367 183.664 193.096 183.664C190.825 183.664 188.984 185.946 188.984 188.76C188.984 191.575 190.825 193.856 193.096 193.856Z" fill="#3F3D56"/>
<path d="M230.309 156.212C232.581 156.212 234.422 153.93 234.422 151.116C234.422 148.301 232.581 146.02 230.309 146.02C228.038 146.02 226.197 148.301 226.197 151.116C226.197 153.93 228.038 156.212 230.309 156.212Z" fill="#3F3D56"/>
<path d="M267.523 189.294C269.794 189.294 271.635 187.012 271.635 184.198C271.635 181.383 269.794 179.102 267.523 179.102C265.252 179.102 263.411 181.383 263.411 184.198C263.411 187.012 265.252 189.294 267.523 189.294Z" fill="#3F3D56"/>
<path d="M304.736 136.817C307.008 136.817 308.849 134.536 308.849 131.721C308.849 128.907 307.008 126.625 304.736 126.625C302.465 126.625 300.624 128.907 300.624 131.721C300.624 134.536 302.465 136.817 304.736 136.817Z" fill="#3F3D56"/>
<path d="M343.961 121.989C346.233 121.989 348.074 119.707 348.074 116.893C348.074 114.078 346.233 111.797 343.961 111.797C341.69 111.797 339.849 114.078 339.849 116.893C339.849 119.707 341.69 121.989 343.961 121.989Z" fill="#3F3D56"/>
<path d="M267.163 185.688L230.75 151.891L194.835 185.226L194.012 183.867L230.75 149.768L266.99 183.405L303.002 134.569L303.146 134.496L339.472 116.359L339.985 117.935L303.803 136L267.163 185.688Z" fill="#3F3D56"/>
<path d="M487.303 347.932H9.44601C6.93884 347.93 4.53626 347.542 2.7654 346.853C0.994536 346.163 1.72804e-05 345.229 0 344.256V318.086H496.749V344.256C496.749 345.229 495.754 346.163 493.984 346.853C492.213 347.542 489.81 347.93 487.303 347.932Z" fill="#BBBDBE"/>
</svg>
